<?xml version="1.0" standalone="no"?>
<!DOCTYPE svg PUBLIC "-//W3C//DTD SVG 1.1//EN" "http://www.w3.org/Graphics/SVG/1.1/DTD/svg11.dtd">
<svg width="372mm" height="305mm" viewBox="-1 -305 372 305" xmlns="http://www.w3.org/2000/svg" version="1.1">
<title>OpenSCAD Model</title>
<path d="
M 25.9,-152.4 L 19.6,-152.4 L 19.6,-304.8 L 9.54001,-304.8 L 9.54001,-304.758 L 8.54175,-304.758
 L 6.58889,-304.343 L 4.76501,-303.531 L 3.14982,-302.357 L 1.81389,-300.873 L 0.815649,-299.144 L 0.198691,-297.246
 L -0.0099884,-295.26 L 6.10352e-06,-295.165 L 6.10352e-06,-10.55 L 0.0951141,-10.55 L -0.0099884,-9.54999 L 0.198691,-7.56444
 L 0.815649,-5.66566 L 1.81389,-3.93665 L 3.14982,-2.45296 L 4.76501,-1.27945 L 6.58889,-0.467407 L 8.54175,-0.0523071
 L 9.54001,-0.0523071 L 9.54001,-0 L 361.26,-0 L 361.26,-0.0523071 L 362.258,-0.0523071 L 364.211,-0.467407
 L 366.035,-1.27945 L 367.65,-2.45296 L 368.986,-3.93665 L 369.984,-5.66566 L 370.601,-7.56444 L 370.81,-9.54999
 L 370.705,-10.55 L 370.8,-10.55 L 370.8,-295.165 L 370.81,-295.26 L 370.601,-297.246 L 369.984,-299.144
 L 368.986,-300.873 L 367.65,-302.357 L 366.035,-303.531 L 364.211,-304.343 L 362.258,-304.758 L 361.26,-304.758
 L 361.26,-304.8 L 351.2,-304.8 L 351.2,-152.4 L 344.9,-152.4 L 344.9,-304.8 L 25.9,-304.8
 z
M 239.4,-279.296 L 241.391,-279.296 L 245.287,-278.468 L 248.925,-276.848 L 252.147,-274.507 L 254.812,-271.547
 L 256.803,-268.098 L 258.034,-264.311 L 258.45,-260.35 L 258.034,-256.389 L 256.803,-252.602 L 254.812,-249.153
 L 252.147,-246.193 L 248.925,-243.852 L 245.287,-242.232 L 241.391,-241.404 L 239.4,-241.404 L 239.4,-241.3
 L 131.4,-241.3 L 131.4,-241.404 L 129.409,-241.404 L 125.513,-242.232 L 121.875,-243.852 L 118.653,-246.193
 L 115.988,-249.153 L 113.997,-252.602 L 112.766,-256.389 L 112.35,-260.35 L 112.766,-264.311 L 113.997,-268.098
 L 115.988,-271.547 L 118.653,-274.507 L 121.875,-276.848 L 125.513,-278.468 L 129.409,-279.296 L 131.4,-279.296
 L 131.4,-279.4 L 239.4,-279.4 z
M 266.39,-24.9 L 104.41,-24.9 L 104.41,-31.2 L 266.39,-31.2 z
" stroke="black" fill="lightgray" stroke-width="0.5"/>
</svg>
