<?xml version="1.0" standalone="no"?>
<!DOCTYPE svg PUBLIC "-//W3C//DTD SVG 1.1//EN" "http://www.w3.org/Graphics/SVG/1.1/DTD/svg11.dtd">
<svg width="467mm" height="305mm" viewBox="-1 -305 467 305" xmlns="http://www.w3.org/2000/svg" version="1.1">
<title>OpenSCAD Model</title>
<path d="
M 439.9,-152.4 L 446.2,-152.4 L 446.2,-0 L 456.26,-0 L 456.26,-0.0523071 L 457.258,-0.0523071
 L 459.211,-0.467407 L 461.035,-1.27945 L 462.65,-2.45296 L 463.986,-3.93665 L 464.984,-5.66566 L 465.601,-7.56444
 L 465.81,-9.54999 L 465.8,-9.64508 L 465.8,-295.165 L 465.81,-295.26 L 465.601,-297.246 L 464.984,-299.144
 L 463.986,-300.873 L 462.65,-302.357 L 461.035,-303.531 L 459.211,-304.343 L 457.258,-304.758 L 456.26,-304.758
 L 456.26,-304.8 L 9.54001,-304.8 L 9.54001,-304.758 L 8.54175,-304.758 L 6.58889,-304.343 L 4.76501,-303.531
 L 3.14982,-302.357 L 1.81389,-300.873 L 0.815649,-299.144 L 0.198691,-297.246 L -0.0099884,-295.26 L 6.10352e-06,-295.165
 L 6.10352e-06,-9.64508 L -0.0099884,-9.54999 L 0.198691,-7.56444 L 0.815649,-5.66566 L 1.81389,-3.93665 L 3.14982,-2.45296
 L 4.76501,-1.27945 L 6.58889,-0.467407 L 8.54175,-0.0523071 L 9.54001,-0.0523071 L 9.54001,-0 L 19.6,-0
 L 19.6,-152.4 L 25.9,-152.4 L 25.9,-0 L 439.9,-0 z
M 286.9,-279.296 L 288.891,-279.296 L 292.787,-278.468 L 296.425,-276.848 L 299.647,-274.507 L 302.312,-271.547
 L 304.303,-268.098 L 305.534,-264.311 L 305.95,-260.35 L 305.534,-256.389 L 304.303,-252.602 L 302.312,-249.153
 L 299.647,-246.193 L 296.425,-243.852 L 292.787,-242.232 L 288.891,-241.404 L 286.9,-241.404 L 286.9,-241.3
 L 178.9,-241.3 L 178.9,-241.404 L 176.909,-241.404 L 173.013,-242.232 L 169.375,-243.852 L 166.153,-246.193
 L 163.488,-249.153 L 161.497,-252.602 L 160.266,-256.389 L 159.85,-260.35 L 160.266,-264.311 L 161.497,-268.098
 L 163.488,-271.547 L 166.153,-274.507 L 169.375,-276.848 L 173.013,-278.468 L 176.909,-279.296 L 178.9,-279.296
 L 178.9,-279.4 L 286.9,-279.4 z
M 337.65,-24.9 L 128.15,-24.9 L 128.15,-31.2 L 337.65,-31.2 z
" stroke="black" fill="lightgray" stroke-width="0.5"/>
</svg>
