<?xml version="1.0" standalone="no"?>
<!DOCTYPE svg PUBLIC "-//W3C//DTD SVG 1.1//EN" "http://www.w3.org/Graphics/SVG/1.1/DTD/svg11.dtd">
<svg width="467mm" height="305mm" viewBox="-1 -305 467 305" xmlns="http://www.w3.org/2000/svg" version="1.1">
<title>OpenSCAD Model</title>
<path d="
M 440.4,-152.4 L 446.6,-152.4 L 446.6,-0 L 456.21,-0 L 456.21,-0.0525818 L 457.213,-0.0525818
 L 459.177,-0.469849 L 461.01,-1.28615 L 462.634,-2.46581 L 463.977,-3.95726 L 464.98,-5.69533 L 465.6,-7.60403
 L 465.81,-9.59999 L 465.8,-9.69508 L 465.8,-295.115 L 465.81,-295.21 L 465.6,-297.206 L 464.98,-299.115
 L 463.977,-300.853 L 462.634,-302.344 L 461.01,-303.524 L 459.177,-304.34 L 457.213,-304.757 L 456.21,-304.757
 L 456.21,-304.8 L 9.59,-304.8 L 9.59,-304.757 L 8.58654,-304.757 L 6.62345,-304.34 L 4.79001,-303.524
 L 3.16636,-302.344 L 1.82345,-300.853 L 0.819968,-299.115 L 0.199789,-297.206 L -0.0099884,-295.21 L 6.10352e-06,-295.115
 L 6.10352e-06,-9.69508 L -0.0099884,-9.59999 L 0.199789,-7.60403 L 0.819968,-5.69533 L 1.82345,-3.95726 L 3.16636,-2.46581
 L 4.79001,-1.28615 L 6.62345,-0.469849 L 8.58654,-0.0525818 L 9.59,-0.0525818 L 9.59,-0 L 19.2,-0
 L 19.2,-152.4 L 25.4,-152.4 L 25.4,-0 L 440.4,-0 z
M 286.9,-279.296 L 288.891,-279.296 L 292.787,-278.468 L 296.425,-276.848 L 299.647,-274.507 L 302.312,-271.547
 L 304.303,-268.098 L 305.534,-264.311 L 305.95,-260.35 L 305.534,-256.389 L 304.303,-252.602 L 302.312,-249.153
 L 299.647,-246.193 L 296.425,-243.852 L 292.787,-242.232 L 288.891,-241.404 L 286.9,-241.404 L 286.9,-241.3
 L 178.9,-241.3 L 178.9,-241.404 L 176.909,-241.404 L 173.013,-242.232 L 169.375,-243.852 L 166.153,-246.193
 L 163.488,-249.153 L 161.497,-252.602 L 160.266,-256.389 L 159.85,-260.35 L 160.266,-264.311 L 161.497,-268.098
 L 163.488,-271.547 L 166.153,-274.507 L 169.375,-276.848 L 173.013,-278.468 L 176.909,-279.296 L 178.9,-279.296
 L 178.9,-279.4 L 286.9,-279.4 z
M 337.65,-25.4 L 128.15,-25.4 L 128.15,-31.6 L 337.65,-31.6 z
" stroke="black" fill="lightgray" stroke-width="0.5"/>
</svg>
