<?xml version="1.0" standalone="no"?>
<!DOCTYPE svg PUBLIC "-//W3C//DTD SVG 1.1//EN" "http://www.w3.org/Graphics/SVG/1.1/DTD/svg11.dtd">
<svg width="466mm" height="320mm" viewBox="0 -320 466 320" xmlns="http://www.w3.org/2000/svg" version="1.1">
<title>OpenSCAD Model</title>
<path d="
M 440.4,-160 L 447.25,-160 L 447.25,-0 L 465.8,-0 L 465.8,-320 L 6.10352e-06,-320
 L 6.10352e-06,-0 L 18.55,-0 L 18.55,-160 L 25.4,-160 L 25.4,-0 L 440.4,-0
 z
M 286.9,-294.496 L 288.891,-294.496 L 292.787,-293.668 L 296.425,-292.048 L 299.647,-289.707 L 302.312,-286.747
 L 304.303,-283.298 L 305.534,-279.511 L 305.95,-275.55 L 305.534,-271.589 L 304.303,-267.802 L 302.312,-264.353
 L 299.647,-261.393 L 296.425,-259.052 L 292.787,-257.432 L 288.891,-256.604 L 286.9,-256.604 L 286.9,-256.5
 L 178.9,-256.5 L 178.9,-256.604 L 176.909,-256.604 L 173.013,-257.432 L 169.375,-259.052 L 166.153,-261.393
 L 163.488,-264.353 L 161.497,-267.802 L 160.266,-271.589 L 159.85,-275.55 L 160.266,-279.511 L 161.497,-283.298
 L 163.488,-286.747 L 166.153,-289.707 L 169.375,-292.048 L 173.013,-293.668 L 176.909,-294.496 L 178.9,-294.496
 L 178.9,-294.6 L 286.9,-294.6 z
M 336.65,-25.4 L 129.15,-25.4 L 129.15,-32.25 L 336.65,-32.25 z
" stroke="black" fill="lightgray" stroke-width="0.5"/>
</svg>
