<?xml version="1.0" standalone="no"?>
<!DOCTYPE svg PUBLIC "-//W3C//DTD SVG 1.1//EN" "http://www.w3.org/Graphics/SVG/1.1/DTD/svg11.dtd">
<svg width="372mm" height="305mm" viewBox="-1 -305 372 305" xmlns="http://www.w3.org/2000/svg" version="1.1">
<title>OpenSCAD Model</title>
<path d="
M 25.4,-152.4 L 19.2,-152.4 L 19.2,-304.8 L 9.59,-304.8 L 9.59,-304.757 L 8.58654,-304.757
 L 6.62345,-304.34 L 4.79001,-303.524 L 3.16636,-302.344 L 1.82345,-300.853 L 0.819968,-299.115 L 0.199789,-297.206
 L -0.0099884,-295.21 L 6.10352e-06,-295.115 L 6.10352e-06,-9.69508 L -0.0099884,-9.59999 L 0.199789,-7.60403 L 0.819968,-5.69533
 L 1.82345,-3.95726 L 3.16636,-2.46581 L 4.79001,-1.28615 L 6.62345,-0.469849 L 8.58654,-0.0525818 L 9.59,-0.0525818
 L 9.59,-0 L 361.21,-0 L 361.21,-0.0525818 L 362.213,-0.0525818 L 364.177,-0.469849 L 366.01,-1.28615
 L 367.634,-2.46581 L 368.977,-3.95726 L 369.98,-5.69533 L 370.6,-7.60403 L 370.81,-9.59999 L 370.8,-9.69508
 L 370.8,-295.115 L 370.81,-295.21 L 370.6,-297.206 L 369.98,-299.115 L 368.977,-300.853 L 367.634,-302.344
 L 366.01,-303.524 L 364.177,-304.34 L 362.213,-304.757 L 361.21,-304.757 L 361.21,-304.8 L 351.6,-304.8
 L 351.6,-152.4 L 345.4,-152.4 L 345.4,-304.8 L 25.4,-304.8 z
M 239.4,-279.296 L 241.391,-279.296 L 245.287,-278.468 L 248.925,-276.848 L 252.147,-274.507 L 254.812,-271.547
 L 256.803,-268.098 L 258.034,-264.311 L 258.45,-260.35 L 258.034,-256.389 L 256.803,-252.602 L 254.812,-249.153
 L 252.147,-246.193 L 248.925,-243.852 L 245.287,-242.232 L 241.391,-241.404 L 239.4,-241.404 L 239.4,-241.3
 L 131.4,-241.3 L 131.4,-241.404 L 129.409,-241.404 L 125.513,-242.232 L 121.875,-243.852 L 118.653,-246.193
 L 115.988,-249.153 L 113.997,-252.602 L 112.766,-256.389 L 112.35,-260.35 L 112.766,-264.311 L 113.997,-268.098
 L 115.988,-271.547 L 118.653,-274.507 L 121.875,-276.848 L 125.513,-278.468 L 129.409,-279.296 L 131.4,-279.296
 L 131.4,-279.4 L 239.4,-279.4 z
M 266.39,-25.4 L 104.41,-25.4 L 104.41,-31.6 L 266.39,-31.6 z
" stroke="black" fill="lightgray" stroke-width="0.5"/>
</svg>
