<?xml version="1.0" standalone="no"?>
<!DOCTYPE svg PUBLIC "-//W3C//DTD SVG 1.1//EN" "http://www.w3.org/Graphics/SVG/1.1/DTD/svg11.dtd">
<svg width="371mm" height="305mm" viewBox="0 -305 371 305" xmlns="http://www.w3.org/2000/svg" version="1.1">
<title>OpenSCAD Model</title>
<path d="
M 25.4,-152.4 L 18.55,-152.4 L 18.55,-304.8 L 6.10352e-06,-304.8 L 6.10352e-06,-0 L 370.8,-0
 L 370.8,-304.8 L 352.25,-304.8 L 352.25,-152.4 L 345.4,-152.4 L 345.4,-304.8 L 25.4,-304.8
 z
M 239.4,-279.296 L 241.391,-279.296 L 245.287,-278.468 L 248.925,-276.848 L 252.147,-274.507 L 254.812,-271.547
 L 256.803,-268.098 L 258.034,-264.311 L 258.45,-260.35 L 258.034,-256.389 L 256.803,-252.602 L 254.812,-249.153
 L 252.147,-246.193 L 248.925,-243.852 L 245.287,-242.232 L 241.391,-241.404 L 239.4,-241.404 L 239.4,-241.3
 L 131.4,-241.3 L 131.4,-241.404 L 129.409,-241.404 L 125.513,-242.232 L 121.875,-243.852 L 118.653,-246.193
 L 115.988,-249.153 L 113.997,-252.602 L 112.766,-256.389 L 112.35,-260.35 L 112.766,-264.311 L 113.997,-268.098
 L 115.988,-271.547 L 118.653,-274.507 L 121.875,-276.848 L 125.513,-278.468 L 129.409,-279.296 L 131.4,-279.296
 L 131.4,-279.4 L 239.4,-279.4 z
M 265.4,-25.4 L 105.4,-25.4 L 105.4,-32.25 L 265.4,-32.25 z
" stroke="black" fill="lightgray" stroke-width="0.5"/>
</svg>
