<?xml version="1.0" standalone="no"?>
<!DOCTYPE svg PUBLIC "-//W3C//DTD SVG 1.1//EN" "http://www.w3.org/Graphics/SVG/1.1/DTD/svg11.dtd">
<svg width="480mm" height="460mm" viewBox="0 -460 480 460" xmlns="http://www.w3.org/2000/svg" version="1.1">
<title>OpenSCAD Model</title>
<path d="
M 117.297,-451.35 L 117.981,-448.446 L 118.624,-445.533 L 119.225,-442.611 L 119.785,-439.681 L 120.303,-436.742
 L 120.779,-433.797 L 121.214,-430.846 L 121.607,-427.889 L 121.958,-424.926 L 122.267,-421.959 L 122.534,-418.987
 L 122.759,-416.012 L 122.941,-413.035 L 123.082,-410.054 L 123.18,-407.073 L 123.236,-404.09 L 123.25,-401.107
 L 123.221,-398.123 L 123.15,-395.141 L 123.037,-392.16 L 122.882,-389.18 L 122.684,-386.203 L 122.445,-383.23
 L 122.163,-380.26 L 121.839,-377.294 L 121.473,-374.333 L 121.066,-371.378 L 120.616,-368.428 L 120.125,-365.486
 L 119.592,-362.55 L 119.018,-359.623 L 118.402,-356.704 L 117.745,-353.794 L 117.046,-350.893 L 116.307,-348.003
 L 115.527,-345.123 L 114.706,-342.255 L 113.845,-339.399 L 112.943,-336.555 L 112.001,-333.724 L 111.019,-330.907
 L 109.997,-328.104 L 108.936,-325.316 L 107.835,-322.543 L 106.695,-319.786 L 105.516,-317.046 L 104.298,-314.322
 L 103.042,-311.616 L 101.748,-308.928 L 100.416,-306.258 L 99.0459,-303.608 L 97.6385,-300.978 L 96.1941,-298.367
 L 94.7128,-295.778 L 93.195,-293.209 L 91.6409,-290.663 L 90.0509,-288.138 L 88.4254,-285.637 L 86.7645,-283.158
 L 85.0687,-280.704 L 83.3383,-278.274 L 81.5737,-275.868 L 79.7751,-273.488 L 77.943,-271.133 L 76.0778,-268.805
 L 74.1797,-266.503 L 72.2492,-264.229 L 70.2867,-261.982 L 68.2926,-259.763 L 66.2672,-257.572 L 64.211,-255.41
 L 62.1244,-253.278 L 60.0078,-251.176 L 57.8616,-249.103 L 55.6863,-247.062 L 53.4823,-245.051 L 51.25,-243.072
 L 48.9899,-241.124 L 46.7024,-239.209 L 44.3881,-237.327 L 42.0473,-235.477 L 39.6805,-233.661 L 37.2882,-231.878
 L 34.871,-230.13 L 32.4292,-228.416 L 29.9633,-226.736 L 27.4739,-225.092 L 24.9615,-223.483 L 22.4265,-221.91
 L 19.8696,-220.373 L 17.291,-218.873 L 14.6915,-217.409 L 12.0716,-215.982 L 9.43163,-214.592 L 6.77226,-213.24
 L 4.09402,-211.926 L 1.39743,-210.649 L 1.52588e-05,-210 L 0.591949,-208.215 L 1.17815,-206.427 L 1.75859,-204.638
 L 2.33327,-202.847 L 2.90219,-201.054 L 3.46533,-199.26 L 4.02271,-197.463 L 4.57428,-195.665 L 5.12009,-193.865
 L 5.66008,-192.063 L 6.19429,-190.259 L 6.72267,-188.454 L 7.24527,-186.647 L 7.76204,-184.839 L 8.27298,-183.028
 L 8.77809,-181.217 L 9.27739,-179.403 L 9.77083,-177.588 L 10.2584,-175.771 L 10.7402,-173.953 L 11.2161,-172.133
 L 11.6862,-170.312 L 12.1503,-168.489 L 12.6087,-166.665 L 13.0611,-164.839 L 13.5077,-163.012 L 13.9484,-161.183
 L 14.3832,-159.353 L 14.8121,-157.522 L 15.2351,-155.689 L 15.6522,-153.855 L 16.0634,-152.02 L 16.4688,-150.183
 L 16.8681,-148.345 L 17.2616,-146.505 L 17.6492,-144.665 L 18.0308,-142.823 L 18.4065,-140.98 L 18.7763,-139.136
 L 19.1401,-137.29 L 19.498,-135.444 L 19.85,-133.596 L 20.196,-131.747 L 20.5361,-129.897 L 20.8702,-128.046
 L 21.1983,-126.194 L 21.5205,-124.341 L 21.8367,-122.486 L 22.147,-120.631 L 22.4513,-118.775 L 22.7496,-116.918
 L 23.0419,-115.06 L 23.3283,-113.201 L 23.6086,-111.341 L 23.883,-109.48 L 24.1514,-107.618 L 24.4138,-105.756
 L 24.6702,-103.892 L 24.9207,-102.028 L 25.1651,-100.163 L 25.4035,-98.2971 L 25.6359,-96.4306 L 25.8623,-94.5633
 L 26.0827,-92.6953 L 26.2971,-90.8266 L 26.5054,-88.9572 L 26.7078,-87.0871 L 26.9041,-85.2164 L 27.0944,-83.3451
 L 27.2787,-81.4732 L 27.457,-79.6007 L 27.6292,-77.7276 L 27.7954,-75.854 L 27.9556,-73.9799 L 28.1098,-72.1052
 L 28.2579,-70.2301 L 28.4,-68.3545 L 28.536,-66.4785 L 28.666,-64.602 L 28.79,-62.7251 L 28.908,-60.8478
 L 29.0199,-58.9702 L 29.1257,-57.0922 L 29.2255,-55.2139 L 29.3193,-53.3353 L 29.407,-51.4563 L 29.4887,-49.5771
 L 29.5643,-47.6977 L 29.6339,-45.818 L 29.6974,-43.9381 L 29.7549,-42.058 L 29.8064,-40.1778 L 29.8517,-38.2973
 L 29.8911,-36.4168 L 29.9244,-34.5361 L 29.9516,-32.6553 L 29.9728,-30.7745 L 29.9879,-28.8936 L 29.997,-27.0126
 L 30,-25.1317 L 30,-0 L 450,-0 L 450,-25.1317 L 450.003,-27.0126 L 450.012,-28.8936
 L 450.027,-30.7745 L 450.048,-32.6553 L 450.076,-34.5361 L 450.109,-36.4168 L 450.148,-38.2973 L 450.194,-40.1778
 L 450.245,-42.058 L 450.303,-43.9381 L 450.366,-45.818 L 450.436,-47.6977 L 450.511,-49.5771 L 450.593,-51.4563
 L 450.681,-53.3353 L 450.774,-55.2139 L 450.874,-57.0922 L 450.98,-58.9702 L 451.092,-60.8478 L 451.21,-62.7251
 L 451.334,-64.602 L 451.464,-66.4785 L 451.6,-68.3545 L 451.742,-70.2301 L 451.89,-72.1052 L 452.044,-73.9799
 L 452.205,-75.854 L 452.371,-77.7276 L 452.543,-79.6007 L 452.721,-81.4732 L 452.906,-83.3451 L 453.096,-85.2164
 L 453.292,-87.0871 L 453.495,-88.9572 L 453.703,-90.8266 L 453.917,-92.6953 L 454.138,-94.5633 L 454.364,-96.4306
 L 454.597,-98.2971 L 454.835,-100.163 L 455.079,-102.028 L 455.33,-103.892 L 455.586,-105.756 L 455.849,-107.618
 L 456.117,-109.48 L 456.391,-111.341 L 456.672,-113.201 L 456.958,-115.06 L 457.25,-116.918 L 457.549,-118.775
 L 457.853,-120.631 L 458.163,-122.486 L 458.479,-124.341 L 458.802,-126.194 L 459.13,-128.046 L 459.464,-129.897
 L 459.804,-131.747 L 460.15,-133.596 L 460.502,-135.444 L 460.86,-137.29 L 461.224,-139.136 L 461.593,-140.98
 L 461.969,-142.823 L 462.351,-144.665 L 462.738,-146.505 L 463.132,-148.345 L 463.531,-150.183 L 463.937,-152.02
 L 464.348,-153.855 L 464.765,-155.689 L 465.188,-157.522 L 465.617,-159.353 L 466.052,-161.183 L 466.492,-163.012
 L 466.939,-164.839 L 467.391,-166.665 L 467.85,-168.489 L 468.314,-170.312 L 468.784,-172.133 L 469.26,-173.953
 L 469.742,-175.771 L 470.229,-177.588 L 470.723,-179.403 L 471.222,-181.217 L 471.727,-183.028 L 472.238,-184.839
 L 472.755,-186.647 L 473.277,-188.454 L 473.806,-190.259 L 474.34,-192.063 L 474.88,-193.865 L 475.426,-195.665
 L 475.977,-197.463 L 476.535,-199.26 L 477.098,-201.054 L 477.667,-202.847 L 478.241,-204.638 L 478.822,-206.427
 L 479.408,-208.215 L 480,-210 L 478.603,-210.649 L 475.906,-211.926 L 473.228,-213.24 L 470.568,-214.592
 L 467.928,-215.982 L 465.308,-217.409 L 462.709,-218.873 L 460.13,-220.373 L 457.573,-221.91 L 455.038,-223.483
 L 452.526,-225.092 L 450.037,-226.736 L 447.571,-228.416 L 445.129,-230.13 L 442.712,-231.878 L 440.32,-233.661
 L 437.953,-235.477 L 435.612,-237.327 L 433.298,-239.209 L 431.01,-241.124 L 428.75,-243.072 L 426.518,-245.051
 L 424.314,-247.062 L 422.138,-249.103 L 419.992,-251.176 L 417.876,-253.278 L 415.789,-255.41 L 413.733,-257.572
 L 411.707,-259.763 L 409.713,-261.982 L 407.751,-264.229 L 405.82,-266.503 L 403.922,-268.805 L 402.057,-271.133
 L 400.225,-273.488 L 398.426,-275.868 L 396.662,-278.274 L 394.931,-280.704 L 393.236,-283.158 L 391.575,-285.637
 L 389.949,-288.138 L 388.359,-290.663 L 386.805,-293.209 L 385.287,-295.778 L 383.806,-298.367 L 382.361,-300.978
 L 380.954,-303.608 L 379.584,-306.258 L 378.252,-308.928 L 376.958,-311.616 L 375.702,-314.322 L 374.484,-317.046
 L 373.305,-319.786 L 372.165,-322.543 L 371.064,-325.316 L 370.003,-328.104 L 368.981,-330.907 L 367.999,-333.724
 L 367.057,-336.555 L 366.155,-339.399 L 365.294,-342.255 L 364.473,-345.123 L 363.693,-348.003 L 362.954,-350.893
 L 362.255,-353.794 L 361.598,-356.704 L 360.982,-359.623 L 360.408,-362.55 L 359.875,-365.486 L 359.384,-368.428
 L 358.934,-371.378 L 358.527,-374.333 L 358.161,-377.294 L 357.837,-380.26 L 357.555,-383.23 L 357.316,-386.203
 L 357.118,-389.18 L 356.963,-392.16 L 356.85,-395.141 L 356.779,-398.123 L 356.75,-401.107 L 356.764,-404.09
 L 356.82,-407.073 L 356.918,-410.054 L 357.059,-413.035 L 357.241,-416.012 L 357.466,-418.987 L 357.733,-421.959
 L 358.042,-424.926 L 358.393,-427.889 L 358.786,-430.846 L 359.221,-433.797 L 359.697,-436.742 L 360.215,-439.681
 L 360.775,-442.611 L 361.376,-445.533 L 362.019,-448.446 L 362.703,-451.35 L 363.33,-453.855 L 365,-460
 L 310,-460 L 308.946,-458.816 L 307.872,-457.651 L 306.779,-456.503 L 305.666,-455.375 L 304.534,-454.266
 L 303.383,-453.176 L 302.214,-452.106 L 301.027,-451.056 L 299.822,-450.026 L 298.6,-449.017 L 297.361,-448.029
 L 296.105,-447.062 L 294.833,-446.117 L 293.545,-445.194 L 292.241,-444.293 L 290.922,-443.414 L 289.589,-442.557
 L 288.241,-441.724 L 286.879,-440.913 L 285.503,-440.126 L 284.114,-439.363 L 282.712,-438.623 L 281.298,-437.907
 L 279.872,-437.216 L 278.435,-436.549 L 276.986,-435.906 L 275.527,-435.288 L 274.057,-434.695 L 272.577,-434.128
 L 271.088,-433.585 L 269.59,-433.068 L 268.083,-432.577 L 266.568,-432.111 L 265.045,-431.672 L 263.515,-431.258
 L 261.979,-430.87 L 260.436,-430.509 L 258.886,-430.174 L 257.332,-429.865 L 255.772,-429.583 L 254.208,-429.328
 L 252.64,-429.099 L 251.068,-428.897 L 249.493,-428.722 L 247.915,-428.574 L 246.335,-428.452 L 244.753,-428.358
 L 243.169,-428.29 L 241.585,-428.25 L 240,-428.236 L 238.415,-428.25 L 236.831,-428.29 L 235.247,-428.358
 L 233.665,-428.452 L 232.085,-428.574 L 230.507,-428.722 L 228.932,-428.897 L 227.36,-429.099 L 225.792,-429.328
 L 224.228,-429.583 L 222.668,-429.865 L 221.114,-430.174 L 219.564,-430.509 L 218.021,-430.87 L 216.485,-431.258
 L 214.955,-431.672 L 213.432,-432.111 L 211.917,-432.577 L 210.41,-433.068 L 208.912,-433.585 L 207.423,-434.128
 L 205.943,-434.695 L 204.473,-435.288 L 203.014,-435.906 L 201.565,-436.549 L 200.128,-437.216 L 198.702,-437.907
 L 197.288,-438.623 L 195.886,-439.363 L 194.497,-440.126 L 193.121,-440.913 L 191.759,-441.724 L 190.411,-442.557
 L 189.078,-443.414 L 187.759,-444.293 L 186.455,-445.194 L 185.167,-446.117 L 183.895,-447.062 L 182.639,-448.029
 L 181.4,-449.017 L 180.178,-450.026 L 178.973,-451.056 L 177.786,-452.106 L 176.617,-453.176 L 175.466,-454.266
 L 174.334,-455.375 L 173.221,-456.503 L 172.128,-457.651 L 171.054,-458.816 L 170,-460 L 115,-460
 L 116.67,-453.855 z
" stroke="black" fill="lightgray" stroke-width="0.5"/>
</svg>
