<?xml version="1.0" standalone="no"?>
<!DOCTYPE svg PUBLIC "-//W3C//DTD SVG 1.1//EN" "http://www.w3.org/Graphics/SVG/1.1/DTD/svg11.dtd">
<svg width="82mm" height="65mm" viewBox="0 -65 82 65" xmlns="http://www.w3.org/2000/svg" version="1.1">
<title>OpenSCAD Model</title>
<path d="
M 10,-5 L 9,-5 L 6,-65 L 4,-65 L 1,-5 L 0,-5
 L 0,-0 L 10,-0 z
M 23,-5 L 22,-5 L 19,-65 L 17,-65 L 14,-5 L 13,-5
 L 13,-0 L 23,-0 z
M 36,-5 L 35,-5 L 32,-65 L 30,-65 L 27,-5 L 26,-5
 L 26,-0 L 36,-0 z
M 49,-5 L 48,-5 L 45,-65 L 43,-65 L 40,-5 L 39,-5
 L 39,-0 L 49,-0 z
M 62,-5 L 61,-5 L 58,-65 L 56,-65 L 53,-5 L 52,-5
 L 52,-0 L 62,-0 z
M 75,-5 L 74,-5 L 71,-65 L 69,-65 L 66,-5 L 65,-5
 L 65,-0 L 75,-0 z
M 15.5,-60 L 16.5,-60 L 16.5,-65 L 6.5,-65 L 6.5,-60 L 7.5,-60
 L 10.5,-0 L 12.5,-0 z
M 28.5,-60 L 29.5,-60 L 29.5,-65 L 19.5,-65 L 19.5,-60 L 20.5,-60
 L 23.5,-0 L 25.5,-0 z
M 41.5,-60 L 42.5,-60 L 42.5,-65 L 32.5,-65 L 32.5,-60 L 33.5,-60
 L 36.5,-0 L 38.5,-0 z
M 54.5,-60 L 55.5,-60 L 55.5,-65 L 45.5,-65 L 45.5,-60 L 46.5,-60
 L 49.5,-0 L 51.5,-0 z
M 67.5,-60 L 68.5,-60 L 68.5,-65 L 58.5,-65 L 58.5,-60 L 59.5,-60
 L 62.5,-0 L 64.5,-0 z
M 80.5,-60 L 81.5,-60 L 81.5,-65 L 71.5,-65 L 71.5,-60 L 72.5,-60
 L 75.5,-0 L 77.5,-0 z
" stroke="black" fill="lightgray" stroke-width="0.5"/>
</svg>
