  0
SECTION
  2
BLOCKS
  0
ENDSEC
  0
SECTION
  2
ENTITIES
  0
LINE
  8
0
 10
10.0459
 20
2.02296
 11
10.0546
 21
1.98021
  0
LINE
  8
0
 10
10.0546
 20
1.98021
 11
10.0641
 21
1.93762
  0
LINE
  8
0
 10
10.0641
 20
1.93762
 11
10.0742
 21
1.89519
  0
LINE
  8
0
 10
10.0742
 20
1.89519
 11
10.0852
 21
1.85295
  0
LINE
  8
0
 10
10.0852
 20
1.85295
 11
10.0968
 21
1.8109
  0
LINE
  8
0
 10
10.0968
 20
1.8109
 11
10.1092
 21
1.76906
  0
LINE
  8
0
 10
10.1092
 20
1.76906
 11
10.1223
 21
1.72745
  0
LINE
  8
0
 10
10.1223
 20
1.72745
 11
10.1362
 21
1.68607
  0
LINE
  8
0
 10
10.1362
 20
1.68607
 11
10.1508
 21
1.64494
  0
LINE
  8
0
 10
10.1508
 20
1.64494
 11
10.166
 21
1.60406
  0
LINE
  8
0
 10
10.166
 20
1.60406
 11
10.182
 21
1.56348
  0
LINE
  8
0
 10
10.182
 20
1.56348
 11
10.1987
 21
1.52316
  0
LINE
  8
0
 10
10.1987
 20
1.52316
 11
10.2161
 21
1.48315
  0
LINE
  8
0
 10
10.2161
 20
1.48315
 11
10.2342
 21
1.44345
  0
LINE
  8
0
 10
10.2342
 20
1.44345
 11
10.253
 21
1.40407
  0
LINE
  8
0
 10
10.253
 20
1.40407
 11
10.2725
 21
1.36502
  0
LINE
  8
0
 10
10.2725
 20
1.36502
 11
10.2926
 21
1.32631
  0
LINE
  8
0
 10
10.2926
 20
1.32631
 11
10.3134
 21
1.28796
  0
LINE
  8
0
 10
10.3134
 20
1.28796
 11
10.3349
 21
1.25
  0
LINE
  8
0
 10
10.3349
 20
1.25
 11
10.3571
 21
1.2124
  0
LINE
  8
0
 10
10.3571
 20
1.2124
 11
10.3799
 21
1.1752
  0
LINE
  8
0
 10
10.3799
 20
1.1752
 11
10.4033
 21
1.1384
  0
LINE
  8
0
 10
10.4033
 20
1.1384
 11
10.4274
 21
1.10201
  0
LINE
  8
0
 10
10.4274
 20
1.10201
 11
10.4521
 21
1.06606
  0
LINE
  8
0
 10
10.4521
 20
1.06606
 11
10.4774
 21
1.03053
  0
LINE
  8
0
 10
10.4774
 20
1.03053
 11
10.5034
 21
0.995453
  0
LINE
  8
0
 10
10.5034
 20
0.995453
 11
10.53
 21
0.960846
  0
LINE
  8
0
 10
10.53
 20
0.960846
 11
10.5571
 21
0.926697
  0
LINE
  8
0
 10
10.5571
 20
0.926697
 11
10.5849
 21
0.893021
  0
LINE
  8
0
 10
10.5849
 20
0.893021
 11
10.6132
 21
0.859848
  0
LINE
  8
0
 10
10.6132
 20
0.859848
 11
10.6421
 21
0.827164
  0
LINE
  8
0
 10
10.6421
 20
0.827164
 11
10.6716
 21
0.794998
  0
LINE
  8
0
 10
10.6716
 20
0.794998
 11
10.7016
 21
0.763351
  0
LINE
  8
0
 10
10.7016
 20
0.763351
 11
10.7322
 21
0.732224
  0
LINE
  8
0
 10
10.7322
 20
0.732224
 11
10.7634
 21
0.701645
  0
LINE
  8
0
 10
10.7634
 20
0.701645
 11
10.795
 21
0.671616
  0
LINE
  8
0
 10
10.795
 20
0.671616
 11
10.8272
 21
0.642136
  0
LINE
  8
0
 10
10.8272
 20
0.642136
 11
10.8598
 21
0.61322
  0
LINE
  8
0
 10
10.8598
 20
0.61322
 11
10.893
 21
0.584885
  0
LINE
  8
0
 10
10.893
 20
0.584885
 11
10.9267
 21
0.557129
  0
LINE
  8
0
 10
10.9267
 20
0.557129
 11
10.9608
 21
0.529968
  0
LINE
  8
0
 10
10.9608
 20
0.529968
 11
10.9955
 21
0.503403
  0
LINE
  8
0
 10
10.9955
 20
0.503403
 11
11.0305
 21
0.477448
  0
LINE
  8
0
 10
11.0305
 20
0.477448
 11
11.0661
 21
0.452118
  0
LINE
  8
0
 10
11.0661
 20
0.452118
 11
11.102
 21
0.427399
  0
LINE
  8
0
 10
11.102
 20
0.427399
 11
11.1384
 21
0.40332
  0
LINE
  8
0
 10
11.1384
 20
0.40332
 11
11.1752
 21
0.379868
  0
LINE
  8
0
 10
11.1752
 20
0.379868
 11
11.2124
 21
0.357071
  0
LINE
  8
0
 10
11.2124
 20
0.357071
 11
11.25
 21
0.33493
  0
LINE
  8
0
 10
11.25
 20
0.33493
 11
11.288
 21
0.313446
  0
LINE
  8
0
 10
11.288
 20
0.313446
 11
11.3263
 21
0.292618
  0
LINE
  8
0
 10
11.3263
 20
0.292618
 11
11.365
 21
0.272476
  0
LINE
  8
0
 10
11.365
 20
0.272476
 11
11.4041
 21
0.253006
  0
LINE
  8
0
 10
11.4041
 20
0.253006
 11
11.4435
 21
0.234222
  0
LINE
  8
0
 10
11.4435
 20
0.234222
 11
11.4832
 21
0.216125
  0
LINE
  8
0
 10
11.4832
 20
0.216125
 11
11.5232
 21
0.19873
  0
LINE
  8
0
 10
11.5232
 20
0.19873
 11
11.5635
 21
0.182037
  0
LINE
  8
0
 10
11.5635
 20
0.182037
 11
11.6041
 21
0.166046
  0
LINE
  8
0
 10
11.6041
 20
0.166046
 11
11.6449
 21
0.150757
  0
LINE
  8
0
 10
11.6449
 20
0.150757
 11
11.6861
 21
0.1362
  0
LINE
  8
0
 10
11.6861
 20
0.1362
 11
11.7274
 21
0.122345
  0
LINE
  8
0
 10
11.7274
 20
0.122345
 11
11.7691
 21
0.109238
  0
LINE
  8
0
 10
11.7691
 20
0.109238
 11
11.8109
 21
0.0968323
  0
LINE
  8
0
 10
11.8109
 20
0.0968323
 11
11.853
 21
0.0851746
  0
LINE
  8
0
 10
11.853
 20
0.0851746
 11
11.8952
 21
0.0742493
  0
LINE
  8
0
 10
11.8952
 20
0.0742493
 11
11.9376
 21
0.0640717
  0
LINE
  8
0
 10
11.9376
 20
0.0640717
 11
11.9802
 21
0.0546265
  0
LINE
  8
0
 10
11.9802
 20
0.0546265
 11
12.023
 21
0.045929
  0
LINE
  8
0
 10
12.023
 20
0.045929
 11
12.0659
 21
0.0379791
  0
LINE
  8
0
 10
12.0659
 20
0.0379791
 11
12.1089
 21
0.030777
  0
LINE
  8
0
 10
12.1089
 20
0.030777
 11
12.1521
 21
0.0243225
  0
LINE
  8
0
 10
12.1521
 20
0.0243225
 11
12.1953
 21
0.018631
  0
LINE
  8
0
 10
12.1953
 20
0.018631
 11
12.2387
 21
0.0136871
  0
LINE
  8
0
 10
12.2387
 20
0.0136871
 11
12.2821
 21
0.00950623
  0
LINE
  8
0
 10
12.2821
 20
0.00950623
 11
12.3256
 21
0.00608826
  0
LINE
  8
0
 10
12.3256
 20
0.00608826
 11
12.3692
 21
0.00341797
  0
LINE
  8
0
 10
12.3692
 20
0.00341797
 11
12.4128
 21
0.00151062
  0
LINE
  8
0
 10
12.4128
 20
0.00151062
 11
12.4564
 21
0.000366211
  0
LINE
  8
0
 10
12.4564
 20
0.000366211
 11
12.5
 21
0
  0
LINE
  8
0
 10
12.5
 20
0
 11
12.5436
 21
0.000366211
  0
LINE
  8
0
 10
12.5436
 20
0.000366211
 11
12.5872
 21
0.00151062
  0
LINE
  8
0
 10
12.5872
 20
0.00151062
 11
12.6308
 21
0.00341797
  0
LINE
  8
0
 10
12.6308
 20
0.00341797
 11
12.6744
 21
0.00608826
  0
LINE
  8
0
 10
12.6744
 20
0.00608826
 11
12.7179
 21
0.00950623
  0
LINE
  8
0
 10
12.7179
 20
0.00950623
 11
12.7613
 21
0.0136871
  0
LINE
  8
0
 10
12.7613
 20
0.0136871
 11
12.8047
 21
0.018631
  0
LINE
  8
0
 10
12.8047
 20
0.018631
 11
12.8479
 21
0.0243225
  0
LINE
  8
0
 10
12.8479
 20
0.0243225
 11
12.8911
 21
0.030777
  0
LINE
  8
0
 10
12.8911
 20
0.030777
 11
12.9341
 21
0.0379791
  0
LINE
  8
0
 10
12.9341
 20
0.0379791
 11
12.977
 21
0.045929
  0
LINE
  8
0
 10
12.977
 20
0.045929
 11
13.0198
 21
0.0546265
  0
LINE
  8
0
 10
13.0198
 20
0.0546265
 11
13.0624
 21
0.0640717
  0
LINE
  8
0
 10
13.0624
 20
0.0640717
 11
13.1048
 21
0.0742493
  0
LINE
  8
0
 10
13.1048
 20
0.0742493
 11
13.147
 21
0.0851746
  0
LINE
  8
0
 10
13.147
 20
0.0851746
 11
13.1891
 21
0.0968323
  0
LINE
  8
0
 10
13.1891
 20
0.0968323
 11
13.2309
 21
0.109238
  0
LINE
  8
0
 10
13.2309
 20
0.109238
 11
13.2725
 21
0.122345
  0
LINE
  8
0
 10
13.2725
 20
0.122345
 11
13.3139
 21
0.1362
  0
LINE
  8
0
 10
13.3139
 20
0.1362
 11
13.355
 21
0.150757
  0
LINE
  8
0
 10
13.355
 20
0.150757
 11
13.3959
 21
0.166046
  0
LINE
  8
0
 10
13.3959
 20
0.166046
 11
13.4365
 21
0.182037
  0
LINE
  8
0
 10
13.4365
 20
0.182037
 11
13.4768
 21
0.19873
  0
LINE
  8
0
 10
13.4768
 20
0.19873
 11
13.5168
 21
0.216125
  0
LINE
  8
0
 10
13.5168
 20
0.216125
 11
13.5565
 21
0.234222
  0
LINE
  8
0
 10
13.5565
 20
0.234222
 11
13.5959
 21
0.253006
  0
LINE
  8
0
 10
13.5959
 20
0.253006
 11
13.635
 21
0.272476
  0
LINE
  8
0
 10
13.635
 20
0.272476
 11
13.6737
 21
0.292618
  0
LINE
  8
0
 10
13.6737
 20
0.292618
 11
13.712
 21
0.313446
  0
LINE
  8
0
 10
13.712
 20
0.313446
 11
13.75
 21
0.33493
  0
LINE
  8
0
 10
13.75
 20
0.33493
 11
13.7876
 21
0.357071
  0
LINE
  8
0
 10
13.7876
 20
0.357071
 11
13.8248
 21
0.379868
  0
LINE
  8
0
 10
13.8248
 20
0.379868
 11
13.8616
 21
0.40332
  0
LINE
  8
0
 10
13.8616
 20
0.40332
 11
13.898
 21
0.427399
  0
LINE
  8
0
 10
13.898
 20
0.427399
 11
13.9339
 21
0.452118
  0
LINE
  8
0
 10
13.9339
 20
0.452118
 11
13.9695
 21
0.477448
  0
LINE
  8
0
 10
13.9695
 20
0.477448
 11
14.0045
 21
0.503403
  0
LINE
  8
0
 10
14.0045
 20
0.503403
 11
14.0391
 21
0.529968
  0
LINE
  8
0
 10
14.0391
 20
0.529968
 11
14.0733
 21
0.557129
  0
LINE
  8
0
 10
14.0733
 20
0.557129
 11
14.107
 21
0.584885
  0
LINE
  8
0
 10
14.107
 20
0.584885
 11
14.1401
 21
0.61322
  0
LINE
  8
0
 10
14.1401
 20
0.61322
 11
14.1728
 21
0.642136
  0
LINE
  8
0
 10
14.1728
 20
0.642136
 11
14.205
 21
0.671616
  0
LINE
  8
0
 10
14.205
 20
0.671616
 11
14.2366
 21
0.701645
  0
LINE
  8
0
 10
14.2366
 20
0.701645
 11
14.2678
 21
0.732224
  0
LINE
  8
0
 10
14.2678
 20
0.732224
 11
14.2983
 21
0.763351
  0
LINE
  8
0
 10
14.2983
 20
0.763351
 11
14.3284
 21
0.794998
  0
LINE
  8
0
 10
14.3284
 20
0.794998
 11
14.3578
 21
0.827164
  0
LINE
  8
0
 10
14.3578
 20
0.827164
 11
14.3868
 21
0.859848
  0
LINE
  8
0
 10
14.3868
 20
0.859848
 11
14.4151
 21
0.893021
  0
LINE
  8
0
 10
14.4151
 20
0.893021
 11
14.4429
 21
0.926697
  0
LINE
  8
0
 10
14.4429
 20
0.926697
 11
14.47
 21
0.960846
  0
LINE
  8
0
 10
14.47
 20
0.960846
 11
14.4966
 21
0.995453
  0
LINE
  8
0
 10
14.4966
 20
0.995453
 11
14.5225
 21
1.03053
  0
LINE
  8
0
 10
14.5225
 20
1.03053
 11
14.5479
 21
1.06606
  0
LINE
  8
0
 10
14.5479
 20
1.06606
 11
14.5726
 21
1.10201
  0
LINE
  8
0
 10
14.5726
 20
1.10201
 11
14.5967
 21
1.1384
  0
LINE
  8
0
 10
14.5967
 20
1.1384
 11
14.6201
 21
1.1752
  0
LINE
  8
0
 10
14.6201
 20
1.1752
 11
14.6429
 21
1.2124
  0
LINE
  8
0
 10
14.6429
 20
1.2124
 11
14.6651
 21
1.25
  0
LINE
  8
0
 10
14.6651
 20
1.25
 11
14.6865
 21
1.28796
  0
LINE
  8
0
 10
14.6865
 20
1.28796
 11
14.7074
 21
1.32631
  0
LINE
  8
0
 10
14.7074
 20
1.32631
 11
14.7275
 21
1.36502
  0
LINE
  8
0
 10
14.7275
 20
1.36502
 11
14.747
 21
1.40407
  0
LINE
  8
0
 10
14.747
 20
1.40407
 11
14.7658
 21
1.44345
  0
LINE
  8
0
 10
14.7658
 20
1.44345
 11
14.7839
 21
1.48315
  0
LINE
  8
0
 10
14.7839
 20
1.48315
 11
14.8013
 21
1.52316
  0
LINE
  8
0
 10
14.8013
 20
1.52316
 11
14.8179
 21
1.56348
  0
LINE
  8
0
 10
14.8179
 20
1.56348
 11
14.8339
 21
1.60406
  0
LINE
  8
0
 10
14.8339
 20
1.60406
 11
14.8492
 21
1.64494
  0
LINE
  8
0
 10
14.8492
 20
1.64494
 11
14.8638
 21
1.68607
  0
LINE
  8
0
 10
14.8638
 20
1.68607
 11
14.8776
 21
1.72745
  0
LINE
  8
0
 10
14.8776
 20
1.72745
 11
14.8907
 21
1.76906
  0
LINE
  8
0
 10
14.8907
 20
1.76906
 11
14.9032
 21
1.8109
  0
LINE
  8
0
 10
14.9032
 20
1.8109
 11
14.9148
 21
1.85295
  0
LINE
  8
0
 10
14.9148
 20
1.85295
 11
14.9257
 21
1.89519
  0
LINE
  8
0
 10
14.9257
 20
1.89519
 11
14.9359
 21
1.93762
  0
LINE
  8
0
 10
14.9359
 20
1.93762
 11
14.9454
 21
1.98021
  0
LINE
  8
0
 10
14.9454
 20
1.98021
 11
14.9541
 21
2.02296
  0
LINE
  8
0
 10
14.9541
 20
2.02296
 11
14.962
 21
2.06587
  0
LINE
  8
0
 10
14.962
 20
2.06587
 11
24.8101
 21
60.3294
  0
LINE
  8
0
 10
24.8101
 20
60.3294
 11
24.8461
 21
60.5446
  0
LINE
  8
0
 10
24.8461
 20
60.5446
 11
24.8783
 21
60.7603
  0
LINE
  8
0
 10
24.8783
 20
60.7603
 11
24.9068
 21
60.9766
  0
LINE
  8
0
 10
24.9068
 20
60.9766
 11
24.9315
 21
61.1934
  0
LINE
  8
0
 10
24.9315
 20
61.1934
 11
24.9524
 21
61.4106
  0
LINE
  8
0
 10
24.9524
 20
61.4106
 11
24.9695
 21
61.628
  0
LINE
  8
0
 10
24.9695
 20
61.628
 11
24.9829
 21
61.8458
  0
LINE
  8
0
 10
24.9829
 20
61.8458
 11
24.9924
 21
62.0638
  0
LINE
  8
0
 10
24.9924
 20
62.0638
 11
24.9981
 21
62.2818
  0
LINE
  8
0
 10
24.9981
 20
62.2818
 11
25
 21
62.5
  0
LINE
  8
0
 10
25
 20
62.5
 11
24.9981
 21
62.7182
  0
LINE
  8
0
 10
24.9981
 20
62.7182
 11
24.9924
 21
62.9362
  0
LINE
  8
0
 10
24.9924
 20
62.9362
 11
24.9829
 21
63.1542
  0
LINE
  8
0
 10
24.9829
 20
63.1542
 11
24.9695
 21
63.3719
  0
LINE
  8
0
 10
24.9695
 20
63.3719
 11
24.9524
 21
63.5894
  0
LINE
  8
0
 10
24.9524
 20
63.5894
 11
24.9315
 21
63.8066
  0
LINE
  8
0
 10
24.9315
 20
63.8066
 11
24.9068
 21
64.0234
  0
LINE
  8
0
 10
24.9068
 20
64.0234
 11
24.8783
 21
64.2397
  0
LINE
  8
0
 10
24.8783
 20
64.2397
 11
24.8461
 21
64.4554
  0
LINE
  8
0
 10
24.8461
 20
64.4554
 11
24.8101
 21
64.6706
  0
LINE
  8
0
 10
24.8101
 20
64.6706
 11
24.7703
 21
64.8851
  0
LINE
  8
0
 10
24.7703
 20
64.8851
 11
24.7268
 21
65.0989
  0
LINE
  8
0
 10
24.7268
 20
65.0989
 11
24.6796
 21
65.3119
  0
LINE
  8
0
 10
24.6796
 20
65.3119
 11
24.6287
 21
65.524
  0
LINE
  8
0
 10
24.6287
 20
65.524
 11
24.5741
 21
65.7352
  0
LINE
  8
0
 10
24.5741
 20
65.7352
 11
24.5158
 21
65.9455
  0
LINE
  8
0
 10
24.5158
 20
65.9455
 11
24.4538
 21
66.1546
  0
LINE
  8
0
 10
24.4538
 20
66.1546
 11
24.3882
 21
66.3627
  0
LINE
  8
0
 10
24.3882
 20
66.3627
 11
24.319
 21
66.5696
  0
LINE
  8
0
 10
24.319
 20
66.5696
 11
24.2462
 21
66.7752
  0
LINE
  8
0
 10
24.2462
 20
66.7752
 11
24.1698
 21
66.9796
  0
LINE
  8
0
 10
24.1698
 20
66.9796
 11
24.0898
 21
67.1826
  0
LINE
  8
0
 10
24.0898
 20
67.1826
 11
24.0063
 21
67.3841
  0
LINE
  8
0
 10
24.0063
 20
67.3841
 11
23.9193
 21
67.5842
  0
LINE
  8
0
 10
23.9193
 20
67.5842
 11
23.8288
 21
67.7827
  0
LINE
  8
0
 10
23.8288
 20
67.7827
 11
23.7349
 21
67.9796
  0
LINE
  8
0
 10
23.7349
 20
67.9796
 11
23.6376
 21
68.1749
  0
LINE
  8
0
 10
23.6376
 20
68.1749
 11
23.5368
 21
68.3684
  0
LINE
  8
0
 10
23.5368
 20
68.3684
 11
23.4327
 21
68.5601
  0
LINE
  8
0
 10
23.4327
 20
68.5601
 11
23.3253
 21
68.75
  0
LINE
  8
0
 10
23.3253
 20
68.75
 11
23.2146
 21
68.938
  0
LINE
  8
0
 10
23.2146
 20
68.938
 11
23.1006
 21
69.124
  0
LINE
  8
0
 10
23.1006
 20
69.124
 11
22.9834
 21
69.308
  0
LINE
  8
0
 10
22.9834
 20
69.308
 11
22.863
 21
69.4899
  0
LINE
  8
0
 10
22.863
 20
69.4899
 11
22.7394
 21
69.6697
  0
LINE
  8
0
 10
22.7394
 20
69.6697
 11
22.6127
 21
69.8473
  0
LINE
  8
0
 10
22.6127
 20
69.8473
 11
22.4829
 21
70.0227
  0
LINE
  8
0
 10
22.4829
 20
70.0227
 11
22.3501
 21
70.1958
  0
LINE
  8
0
 10
22.3501
 20
70.1958
 11
22.2143
 21
70.3665
  0
LINE
  8
0
 10
22.2143
 20
70.3665
 11
22.0755
 21
70.5348
  0
LINE
  8
0
 10
22.0755
 20
70.5348
 11
21.9339
 21
70.7007
  0
LINE
  8
0
 10
21.9339
 20
70.7007
 11
21.7893
 21
70.8641
  0
LINE
  8
0
 10
21.7893
 20
70.8641
 11
21.6419
 21
71.025
  0
LINE
  8
0
 10
21.6419
 20
71.025
 11
21.4917
 21
71.1832
  0
LINE
  8
0
 10
21.4917
 20
71.1832
 11
21.3388
 21
71.3388
  0
LINE
  8
0
 10
21.3388
 20
71.3388
 11
21.1832
 21
71.4917
  0
LINE
  8
0
 10
21.1832
 20
71.4917
 11
21.025
 21
71.6419
  0
LINE
  8
0
 10
21.025
 20
71.6419
 11
20.8641
 21
71.7893
  0
LINE
  8
0
 10
20.8641
 20
71.7893
 11
20.7007
 21
71.9339
  0
LINE
  8
0
 10
20.7007
 20
71.9339
 11
20.5348
 21
72.0755
  0
LINE
  8
0
 10
20.5348
 20
72.0755
 11
20.3665
 21
72.2143
  0
LINE
  8
0
 10
20.3665
 20
72.2143
 11
20.1958
 21
72.3501
  0
LINE
  8
0
 10
20.1958
 20
72.3501
 11
20.0227
 21
72.4829
  0
LINE
  8
0
 10
20.0227
 20
72.4829
 11
19.8473
 21
72.6127
  0
LINE
  8
0
 10
19.8473
 20
72.6127
 11
19.6697
 21
72.7394
  0
LINE
  8
0
 10
19.6697
 20
72.7394
 11
19.4899
 21
72.863
  0
LINE
  8
0
 10
19.4899
 20
72.863
 11
19.308
 21
72.9834
  0
LINE
  8
0
 10
19.308
 20
72.9834
 11
19.124
 21
73.1006
  0
LINE
  8
0
 10
19.124
 20
73.1006
 11
18.938
 21
73.2146
  0
LINE
  8
0
 10
18.938
 20
73.2146
 11
18.75
 21
73.3253
  0
LINE
  8
0
 10
18.75
 20
73.3253
 11
18.5601
 21
73.4327
  0
LINE
  8
0
 10
18.5601
 20
73.4327
 11
18.3684
 21
73.5368
  0
LINE
  8
0
 10
18.3684
 20
73.5368
 11
18.1749
 21
73.6376
  0
LINE
  8
0
 10
18.1749
 20
73.6376
 11
17.9796
 21
73.7349
  0
LINE
  8
0
 10
17.9796
 20
73.7349
 11
17.7827
 21
73.8288
  0
LINE
  8
0
 10
17.7827
 20
73.8288
 11
17.5842
 21
73.9193
  0
LINE
  8
0
 10
17.5842
 20
73.9193
 11
17.3841
 21
74.0063
  0
LINE
  8
0
 10
17.3841
 20
74.0063
 11
17.1826
 21
74.0898
  0
LINE
  8
0
 10
17.1826
 20
74.0898
 11
16.9796
 21
74.1698
  0
LINE
  8
0
 10
16.9796
 20
74.1698
 11
16.7752
 21
74.2462
  0
LINE
  8
0
 10
16.7752
 20
74.2462
 11
16.5696
 21
74.319
  0
LINE
  8
0
 10
16.5696
 20
74.319
 11
16.3627
 21
74.3882
  0
LINE
  8
0
 10
16.3627
 20
74.3882
 11
16.1546
 21
74.4538
  0
LINE
  8
0
 10
16.1546
 20
74.4538
 11
15.9455
 21
74.5158
  0
LINE
  8
0
 10
15.9455
 20
74.5158
 11
15.7352
 21
74.5741
  0
LINE
  8
0
 10
15.7352
 20
74.5741
 11
15.524
 21
74.6287
  0
LINE
  8
0
 10
15.524
 20
74.6287
 11
15.3119
 21
74.6796
  0
LINE
  8
0
 10
15.3119
 20
74.6796
 11
15.0989
 21
74.7268
  0
LINE
  8
0
 10
15.0989
 20
74.7268
 11
14.8851
 21
74.7703
  0
LINE
  8
0
 10
14.8851
 20
74.7703
 11
14.6706
 21
74.8101
  0
LINE
  8
0
 10
14.6706
 20
74.8101
 11
14.4554
 21
74.8461
  0
LINE
  8
0
 10
14.4554
 20
74.8461
 11
14.2397
 21
74.8783
  0
LINE
  8
0
 10
14.2397
 20
74.8783
 11
14.0234
 21
74.9068
  0
LINE
  8
0
 10
14.0234
 20
74.9068
 11
13.8066
 21
74.9315
  0
LINE
  8
0
 10
13.8066
 20
74.9315
 11
13.5894
 21
74.9524
  0
LINE
  8
0
 10
13.5894
 20
74.9524
 11
13.3719
 21
74.9695
  0
LINE
  8
0
 10
13.3719
 20
74.9695
 11
13.1542
 21
74.9829
  0
LINE
  8
0
 10
13.1542
 20
74.9829
 11
12.9362
 21
74.9924
  0
LINE
  8
0
 10
12.9362
 20
74.9924
 11
12.7182
 21
74.9981
  0
LINE
  8
0
 10
12.7182
 20
74.9981
 11
12.5
 21
75
  0
LINE
  8
0
 10
12.5
 20
75
 11
12.2818
 21
74.9981
  0
LINE
  8
0
 10
12.2818
 20
74.9981
 11
12.0638
 21
74.9924
  0
LINE
  8
0
 10
12.0638
 20
74.9924
 11
11.8458
 21
74.9829
  0
LINE
  8
0
 10
11.8458
 20
74.9829
 11
11.628
 21
74.9695
  0
LINE
  8
0
 10
11.628
 20
74.9695
 11
11.4106
 21
74.9524
  0
LINE
  8
0
 10
11.4106
 20
74.9524
 11
11.1934
 21
74.9315
  0
LINE
  8
0
 10
11.1934
 20
74.9315
 11
10.9766
 21
74.9068
  0
LINE
  8
0
 10
10.9766
 20
74.9068
 11
10.7603
 21
74.8783
  0
LINE
  8
0
 10
10.7603
 20
74.8783
 11
10.5446
 21
74.8461
  0
LINE
  8
0
 10
10.5446
 20
74.8461
 11
10.3294
 21
74.8101
  0
LINE
  8
0
 10
10.3294
 20
74.8101
 11
10.1149
 21
74.7703
  0
LINE
  8
0
 10
10.1149
 20
74.7703
 11
9.90109
 21
74.7268
  0
LINE
  8
0
 10
9.90109
 20
74.7268
 11
9.68811
 21
74.6796
  0
LINE
  8
0
 10
9.68811
 20
74.6796
 11
9.47597
 21
74.6287
  0
LINE
  8
0
 10
9.47597
 20
74.6287
 11
9.26476
 21
74.5741
  0
LINE
  8
0
 10
9.26476
 20
74.5741
 11
9.05452
 21
74.5158
  0
LINE
  8
0
 10
9.05452
 20
74.5158
 11
8.84535
 21
74.4538
  0
LINE
  8
0
 10
8.84535
 20
74.4538
 11
8.63728
 21
74.3882
  0
LINE
  8
0
 10
8.63728
 20
74.3882
 11
8.43039
 21
74.319
  0
LINE
  8
0
 10
8.43039
 20
74.319
 11
8.22475
 21
74.2462
  0
LINE
  8
0
 10
8.22475
 20
74.2462
 11
8.02039
 21
74.1698
  0
LINE
  8
0
 10
8.02039
 20
74.1698
 11
7.81741
 21
74.0898
  0
LINE
  8
0
 10
7.81741
 20
74.0898
 11
7.61586
 21
74.0063
  0
LINE
  8
0
 10
7.61586
 20
74.0063
 11
7.41579
 21
73.9193
  0
LINE
  8
0
 10
7.41579
 20
73.9193
 11
7.21727
 21
73.8288
  0
LINE
  8
0
 10
7.21727
 20
73.8288
 11
7.02036
 21
73.7349
  0
LINE
  8
0
 10
7.02036
 20
73.7349
 11
6.8251
 21
73.6376
  0
LINE
  8
0
 10
6.8251
 20
73.6376
 11
6.63159
 21
73.5368
  0
LINE
  8
0
 10
6.63159
 20
73.5368
 11
6.43987
 21
73.4327
  0
LINE
  8
0
 10
6.43987
 20
73.4327
 11
6.25
 21
73.3253
  0
LINE
  8
0
 10
6.25
 20
73.3253
 11
6.06201
 21
73.2146
  0
LINE
  8
0
 10
6.06201
 20
73.2146
 11
5.87601
 21
73.1006
  0
LINE
  8
0
 10
5.87601
 20
73.1006
 11
5.692
 21
72.9834
  0
LINE
  8
0
 10
5.692
 20
72.9834
 11
5.51009
 21
72.863
  0
LINE
  8
0
 10
5.51009
 20
72.863
 11
5.33029
 21
72.7394
  0
LINE
  8
0
 10
5.33029
 20
72.7394
 11
5.15268
 21
72.6127
  0
LINE
  8
0
 10
5.15268
 20
72.6127
 11
4.97731
 21
72.4829
  0
LINE
  8
0
 10
4.97731
 20
72.4829
 11
4.80423
 21
72.3501
  0
LINE
  8
0
 10
4.80423
 20
72.3501
 11
4.63348
 21
72.2143
  0
LINE
  8
0
 10
4.63348
 20
72.2143
 11
4.46515
 21
72.0755
  0
LINE
  8
0
 10
4.46515
 20
72.0755
 11
4.29926
 21
71.9339
  0
LINE
  8
0
 10
4.29926
 20
71.9339
 11
4.13586
 21
71.7893
  0
LINE
  8
0
 10
4.13586
 20
71.7893
 11
3.97501
 21
71.6419
  0
LINE
  8
0
 10
3.97501
 20
71.6419
 11
3.81676
 21
71.4917
  0
LINE
  8
0
 10
3.81676
 20
71.4917
 11
3.66116
 21
71.3388
  0
LINE
  8
0
 10
3.66116
 20
71.3388
 11
3.50824
 21
71.1832
  0
LINE
  8
0
 10
3.50824
 20
71.1832
 11
3.35808
 21
71.025
  0
LINE
  8
0
 10
3.35808
 20
71.025
 11
3.21068
 21
70.8641
  0
LINE
  8
0
 10
3.21068
 20
70.8641
 11
3.06612
 21
70.7007
  0
LINE
  8
0
 10
3.06612
 20
70.7007
 11
2.92444
 21
70.5348
  0
LINE
  8
0
 10
2.92444
 20
70.5348
 11
2.78568
 21
70.3665
  0
LINE
  8
0
 10
2.78568
 20
70.3665
 11
2.64986
 21
70.1958
  0
LINE
  8
0
 10
2.64986
 20
70.1958
 11
2.51704
 21
70.0227
  0
LINE
  8
0
 10
2.51704
 20
70.0227
 11
2.38728
 21
69.8473
  0
LINE
  8
0
 10
2.38728
 20
69.8473
 11
2.26059
 21
69.6697
  0
LINE
  8
0
 10
2.26059
 20
69.6697
 11
2.13702
 21
69.4899
  0
LINE
  8
0
 10
2.13702
 20
69.4899
 11
2.01662
 21
69.308
  0
LINE
  8
0
 10
2.01662
 20
69.308
 11
1.89938
 21
69.124
  0
LINE
  8
0
 10
1.89938
 20
69.124
 11
1.7854
 21
68.938
  0
LINE
  8
0
 10
1.7854
 20
68.938
 11
1.67467
 21
68.75
  0
LINE
  8
0
 10
1.67467
 20
68.75
 11
1.56725
 21
68.5601
  0
LINE
  8
0
 10
1.56725
 20
68.5601
 11
1.46315
 21
68.3684
  0
LINE
  8
0
 10
1.46315
 20
68.3684
 11
1.36241
 21
68.1749
  0
LINE
  8
0
 10
1.36241
 20
68.1749
 11
1.26506
 21
67.9796
  0
LINE
  8
0
 10
1.26506
 20
67.9796
 11
1.17114
 21
67.7827
  0
LINE
  8
0
 10
1.17114
 20
67.7827
 11
1.08067
 21
67.5842
  0
LINE
  8
0
 10
1.08067
 20
67.5842
 11
0.993683
 21
67.3841
  0
LINE
  8
0
 10
0.993683
 20
67.3841
 11
0.910187
 21
67.1826
  0
LINE
  8
0
 10
0.910187
 20
67.1826
 11
0.830231
 21
66.9796
  0
LINE
  8
0
 10
0.830231
 20
66.9796
 11
0.75383
 21
66.7752
  0
LINE
  8
0
 10
0.75383
 20
66.7752
 11
0.681015
 21
66.5696
  0
LINE
  8
0
 10
0.681015
 20
66.5696
 11
0.611786
 21
66.3627
  0
LINE
  8
0
 10
0.611786
 20
66.3627
 11
0.546188
 21
66.1546
  0
LINE
  8
0
 10
0.546188
 20
66.1546
 11
0.484222
 21
65.9455
  0
LINE
  8
0
 10
0.484222
 20
65.9455
 11
0.425919
 21
65.7352
  0
LINE
  8
0
 10
0.425919
 20
65.7352
 11
0.371292
 21
65.524
  0
LINE
  8
0
 10
0.371292
 20
65.524
 11
0.320374
 21
65.3119
  0
LINE
  8
0
 10
0.320374
 20
65.3119
 11
0.273148
 21
65.0989
  0
LINE
  8
0
 10
0.273148
 20
65.0989
 11
0.22966
 21
64.8851
  0
LINE
  8
0
 10
0.22966
 20
64.8851
 11
0.189896
 21
64.6706
  0
LINE
  8
0
 10
0.189896
 20
64.6706
 11
0.153885
 21
64.4554
  0
LINE
  8
0
 10
0.153885
 20
64.4554
 11
0.121643
 21
64.2397
  0
LINE
  8
0
 10
0.121643
 20
64.2397
 11
0.0931702
 21
64.0234
  0
LINE
  8
0
 10
0.0931702
 20
64.0234
 11
0.0684662
 21
63.8066
  0
LINE
  8
0
 10
0.0684662
 20
63.8066
 11
0.0475616
 21
63.5894
  0
LINE
  8
0
 10
0.0475616
 20
63.5894
 11
0.0304413
 21
63.3719
  0
LINE
  8
0
 10
0.0304413
 20
63.3719
 11
0.0171204
 21
63.1542
  0
LINE
  8
0
 10
0.0171204
 20
63.1542
 11
0.00761414
 21
62.9362
  0
LINE
  8
0
 10
0.00761414
 20
62.9362
 11
0.00189209
 21
62.7182
  0
LINE
  8
0
 10
0.00189209
 20
62.7182
 11
0
 21
62.5
  0
LINE
  8
0
 10
0
 20
62.5
 11
0.00189209
 21
62.2818
  0
LINE
  8
0
 10
0.00189209
 20
62.2818
 11
0.00761414
 21
62.0638
  0
LINE
  8
0
 10
0.00761414
 20
62.0638
 11
0.0171204
 21
61.8458
  0
LINE
  8
0
 10
0.0171204
 20
61.8458
 11
0.0304413
 21
61.628
  0
LINE
  8
0
 10
0.0304413
 20
61.628
 11
0.0475616
 21
61.4106
  0
LINE
  8
0
 10
0.0475616
 20
61.4106
 11
0.0684662
 21
61.1934
  0
LINE
  8
0
 10
0.0684662
 20
61.1934
 11
0.0931702
 21
60.9766
  0
LINE
  8
0
 10
0.0931702
 20
60.9766
 11
0.121643
 21
60.7603
  0
LINE
  8
0
 10
0.121643
 20
60.7603
 11
0.153885
 21
60.5446
  0
LINE
  8
0
 10
0.153885
 20
60.5446
 11
0.189896
 21
60.3294
  0
LINE
  8
0
 10
0.189896
 20
60.3294
 11
10.038
 21
2.06587
  0
LINE
  8
0
 10
10.038
 20
2.06587
 11
10.0459
 21
2.02296
  0
LINE
  8
0
 10
12.4651
 20
60.5003
 11
12.4302
 21
60.5012
  0
LINE
  8
0
 10
12.4302
 20
60.5012
 11
12.3953
 21
60.5027
  0
LINE
  8
0
 10
12.3953
 20
60.5027
 11
12.3605
 21
60.5049
  0
LINE
  8
0
 10
12.3605
 20
60.5049
 11
12.3257
 21
60.5076
  0
LINE
  8
0
 10
12.3257
 20
60.5076
 11
12.2909
 21
60.511
  0
LINE
  8
0
 10
12.2909
 20
60.511
 11
12.2563
 21
60.5149
  0
LINE
  8
0
 10
12.2563
 20
60.5149
 11
12.2216
 21
60.5195
  0
LINE
  8
0
 10
12.2216
 20
60.5195
 11
12.1871
 21
60.5246
  0
LINE
  8
0
 10
12.1871
 20
60.5246
 11
12.1527
 21
60.5304
  0
LINE
  8
0
 10
12.1527
 20
60.5304
 11
12.1184
 21
60.5367
  0
LINE
  8
0
 10
12.1184
 20
60.5367
 11
12.0842
 21
60.5437
  0
LINE
  8
0
 10
12.0842
 20
60.5437
 11
12.0501
 21
60.5513
  0
LINE
  8
0
 10
12.0501
 20
60.5513
 11
12.0161
 21
60.5594
  0
LINE
  8
0
 10
12.0161
 20
60.5594
 11
11.9824
 21
60.5681
  0
LINE
  8
0
 10
11.9824
 20
60.5681
 11
11.9487
 21
60.5775
  0
LINE
  8
0
 10
11.9487
 20
60.5775
 11
11.9153
 21
60.5874
  0
LINE
  8
0
 10
11.9153
 20
60.5874
 11
11.882
 21
60.5979
  0
LINE
  8
0
 10
11.882
 20
60.5979
 11
11.8489
 21
60.6089
  0
LINE
  8
0
 10
11.8489
 20
60.6089
 11
11.8159
 21
60.6206
  0
LINE
  8
0
 10
11.8159
 20
60.6206
 11
11.7832
 21
60.6328
  0
LINE
  8
0
 10
11.7832
 20
60.6328
 11
11.7508
 21
60.6456
  0
LINE
  8
0
 10
11.7508
 20
60.6456
 11
11.7185
 21
60.659
  0
LINE
  8
0
 10
11.7185
 20
60.659
 11
11.6865
 21
60.6729
  0
LINE
  8
0
 10
11.6865
 20
60.6729
 11
11.6548
 21
60.6874
  0
LINE
  8
0
 10
11.6548
 20
60.6874
 11
11.6232
 21
60.7024
  0
LINE
  8
0
 10
11.6232
 20
60.7024
 11
11.592
 21
60.718
  0
LINE
  8
0
 10
11.592
 20
60.718
 11
11.5611
 21
60.7341
  0
LINE
  8
0
 10
11.5611
 20
60.7341
 11
11.5304
 21
60.7507
  0
LINE
  8
0
 10
11.5304
 20
60.7507
 11
11.5
 21
60.7679
  0
LINE
  8
0
 10
11.5
 20
60.7679
 11
11.4699
 21
60.7857
  0
LINE
  8
0
 10
11.4699
 20
60.7857
 11
11.4402
 21
60.8039
  0
LINE
  8
0
 10
11.4402
 20
60.8039
 11
11.4107
 21
60.8226
  0
LINE
  8
0
 10
11.4107
 20
60.8226
 11
11.3816
 21
60.8419
  0
LINE
  8
0
 10
11.3816
 20
60.8419
 11
11.3528
 21
60.8617
  0
LINE
  8
0
 10
11.3528
 20
60.8617
 11
11.3244
 21
60.882
  0
LINE
  8
0
 10
11.3244
 20
60.882
 11
11.2964
 21
60.9027
  0
LINE
  8
0
 10
11.2964
 20
60.9027
 11
11.2687
 21
60.924
  0
LINE
  8
0
 10
11.2687
 20
60.924
 11
11.2413
 21
60.9457
  0
LINE
  8
0
 10
11.2413
 20
60.9457
 11
11.2144
 21
60.9679
  0
LINE
  8
0
 10
11.2144
 20
60.9679
 11
11.1879
 21
60.9906
  0
LINE
  8
0
 10
11.1879
 20
60.9906
 11
11.1617
 21
61.0137
  0
LINE
  8
0
 10
11.1617
 20
61.0137
 11
11.136
 21
61.0373
  0
LINE
  8
0
 10
11.136
 20
61.0373
 11
11.1107
 21
61.0613
  0
LINE
  8
0
 10
11.1107
 20
61.0613
 11
11.0858
 21
61.0858
  0
LINE
  8
0
 10
11.0858
 20
61.0858
 11
11.0613
 21
61.1107
  0
LINE
  8
0
 10
11.0613
 20
61.1107
 11
11.0373
 21
61.136
  0
LINE
  8
0
 10
11.0373
 20
61.136
 11
11.0137
 21
61.1617
  0
LINE
  8
0
 10
11.0137
 20
61.1617
 11
10.9906
 21
61.1879
  0
LINE
  8
0
 10
10.9906
 20
61.1879
 11
10.9679
 21
61.2144
  0
LINE
  8
0
 10
10.9679
 20
61.2144
 11
10.9457
 21
61.2413
  0
LINE
  8
0
 10
10.9457
 20
61.2413
 11
10.924
 21
61.2687
  0
LINE
  8
0
 10
10.924
 20
61.2687
 11
10.9027
 21
61.2964
  0
LINE
  8
0
 10
10.9027
 20
61.2964
 11
10.882
 21
61.3244
  0
LINE
  8
0
 10
10.882
 20
61.3244
 11
10.8617
 21
61.3528
  0
LINE
  8
0
 10
10.8617
 20
61.3528
 11
10.8419
 21
61.3816
  0
LINE
  8
0
 10
10.8419
 20
61.3816
 11
10.8226
 21
61.4107
  0
LINE
  8
0
 10
10.8226
 20
61.4107
 11
10.8039
 21
61.4402
  0
LINE
  8
0
 10
10.8039
 20
61.4402
 11
10.7857
 21
61.4699
  0
LINE
  8
0
 10
10.7857
 20
61.4699
 11
10.7679
 21
61.5
  0
LINE
  8
0
 10
10.7679
 20
61.5
 11
10.7507
 21
61.5304
  0
LINE
  8
0
 10
10.7507
 20
61.5304
 11
10.7341
 21
61.5611
  0
LINE
  8
0
 10
10.7341
 20
61.5611
 11
10.718
 21
61.592
  0
LINE
  8
0
 10
10.718
 20
61.592
 11
10.7024
 21
61.6232
  0
LINE
  8
0
 10
10.7024
 20
61.6232
 11
10.6874
 21
61.6548
  0
LINE
  8
0
 10
10.6874
 20
61.6548
 11
10.6729
 21
61.6865
  0
LINE
  8
0
 10
10.6729
 20
61.6865
 11
10.659
 21
61.7185
  0
LINE
  8
0
 10
10.659
 20
61.7185
 11
10.6456
 21
61.7508
  0
LINE
  8
0
 10
10.6456
 20
61.7508
 11
10.6328
 21
61.7832
  0
LINE
  8
0
 10
10.6328
 20
61.7832
 11
10.6206
 21
61.8159
  0
LINE
  8
0
 10
10.6206
 20
61.8159
 11
10.6089
 21
61.8489
  0
LINE
  8
0
 10
10.6089
 20
61.8489
 11
10.5979
 21
61.882
  0
LINE
  8
0
 10
10.5979
 20
61.882
 11
10.5874
 21
61.9153
  0
LINE
  8
0
 10
10.5874
 20
61.9153
 11
10.5775
 21
61.9487
  0
LINE
  8
0
 10
10.5775
 20
61.9487
 11
10.5681
 21
61.9824
  0
LINE
  8
0
 10
10.5681
 20
61.9824
 11
10.5594
 21
62.0161
  0
LINE
  8
0
 10
10.5594
 20
62.0161
 11
10.5513
 21
62.0501
  0
LINE
  8
0
 10
10.5513
 20
62.0501
 11
10.5437
 21
62.0842
  0
LINE
  8
0
 10
10.5437
 20
62.0842
 11
10.5367
 21
62.1184
  0
LINE
  8
0
 10
10.5367
 20
62.1184
 11
10.5304
 21
62.1527
  0
LINE
  8
0
 10
10.5304
 20
62.1527
 11
10.5246
 21
62.1871
  0
LINE
  8
0
 10
10.5246
 20
62.1871
 11
10.5195
 21
62.2216
  0
LINE
  8
0
 10
10.5195
 20
62.2216
 11
10.5149
 21
62.2563
  0
LINE
  8
0
 10
10.5149
 20
62.2563
 11
10.511
 21
62.2909
  0
LINE
  8
0
 10
10.511
 20
62.2909
 11
10.5076
 21
62.3257
  0
LINE
  8
0
 10
10.5076
 20
62.3257
 11
10.5049
 21
62.3605
  0
LINE
  8
0
 10
10.5049
 20
62.3605
 11
10.5027
 21
62.3953
  0
LINE
  8
0
 10
10.5027
 20
62.3953
 11
10.5012
 21
62.4302
  0
LINE
  8
0
 10
10.5012
 20
62.4302
 11
10.5003
 21
62.4651
  0
LINE
  8
0
 10
10.5003
 20
62.4651
 11
10.5
 21
62.5
  0
LINE
  8
0
 10
10.5
 20
62.5
 11
10.5003
 21
62.5349
  0
LINE
  8
0
 10
10.5003
 20
62.5349
 11
10.5012
 21
62.5698
  0
LINE
  8
0
 10
10.5012
 20
62.5698
 11
10.5027
 21
62.6047
  0
LINE
  8
0
 10
10.5027
 20
62.6047
 11
10.5049
 21
62.6395
  0
LINE
  8
0
 10
10.5049
 20
62.6395
 11
10.5076
 21
62.6743
  0
LINE
  8
0
 10
10.5076
 20
62.6743
 11
10.511
 21
62.709
  0
LINE
  8
0
 10
10.511
 20
62.709
 11
10.5149
 21
62.7437
  0
LINE
  8
0
 10
10.5149
 20
62.7437
 11
10.5195
 21
62.7783
  0
LINE
  8
0
 10
10.5195
 20
62.7783
 11
10.5246
 21
62.8129
  0
LINE
  8
0
 10
10.5246
 20
62.8129
 11
10.5304
 21
62.8473
  0
LINE
  8
0
 10
10.5304
 20
62.8473
 11
10.5367
 21
62.8816
  0
LINE
  8
0
 10
10.5367
 20
62.8816
 11
10.5437
 21
62.9158
  0
LINE
  8
0
 10
10.5437
 20
62.9158
 11
10.5513
 21
62.9499
  0
LINE
  8
0
 10
10.5513
 20
62.9499
 11
10.5594
 21
62.9838
  0
LINE
  8
0
 10
10.5594
 20
62.9838
 11
10.5681
 21
63.0176
  0
LINE
  8
0
 10
10.5681
 20
63.0176
 11
10.5775
 21
63.0513
  0
LINE
  8
0
 10
10.5775
 20
63.0513
 11
10.5874
 21
63.0847
  0
LINE
  8
0
 10
10.5874
 20
63.0847
 11
10.5979
 21
63.118
  0
LINE
  8
0
 10
10.5979
 20
63.118
 11
10.6089
 21
63.1511
  0
LINE
  8
0
 10
10.6089
 20
63.1511
 11
10.6206
 21
63.184
  0
LINE
  8
0
 10
10.6206
 20
63.184
 11
10.6328
 21
63.2167
  0
LINE
  8
0
 10
10.6328
 20
63.2167
 11
10.6456
 21
63.2492
  0
LINE
  8
0
 10
10.6456
 20
63.2492
 11
10.659
 21
63.2814
  0
LINE
  8
0
 10
10.659
 20
63.2814
 11
10.6729
 21
63.3135
  0
LINE
  8
0
 10
10.6729
 20
63.3135
 11
10.6874
 21
63.3452
  0
LINE
  8
0
 10
10.6874
 20
63.3452
 11
10.7024
 21
63.3767
  0
LINE
  8
0
 10
10.7024
 20
63.3767
 11
10.718
 21
63.408
  0
LINE
  8
0
 10
10.718
 20
63.408
 11
10.7341
 21
63.4389
  0
LINE
  8
0
 10
10.7341
 20
63.4389
 11
10.7507
 21
63.4696
  0
LINE
  8
0
 10
10.7507
 20
63.4696
 11
10.7679
 21
63.5
  0
LINE
  8
0
 10
10.7679
 20
63.5
 11
10.7857
 21
63.5301
  0
LINE
  8
0
 10
10.7857
 20
63.5301
 11
10.8039
 21
63.5598
  0
LINE
  8
0
 10
10.8039
 20
63.5598
 11
10.8226
 21
63.5893
  0
LINE
  8
0
 10
10.8226
 20
63.5893
 11
10.8419
 21
63.6184
  0
LINE
  8
0
 10
10.8419
 20
63.6184
 11
10.8617
 21
63.6471
  0
LINE
  8
0
 10
10.8617
 20
63.6471
 11
10.882
 21
63.6756
  0
LINE
  8
0
 10
10.882
 20
63.6756
 11
10.9027
 21
63.7036
  0
LINE
  8
0
 10
10.9027
 20
63.7036
 11
10.924
 21
63.7313
  0
LINE
  8
0
 10
10.924
 20
63.7313
 11
10.9457
 21
63.7586
  0
LINE
  8
0
 10
10.9457
 20
63.7586
 11
10.9679
 21
63.7856
  0
LINE
  8
0
 10
10.9679
 20
63.7856
 11
10.9906
 21
63.8121
  0
LINE
  8
0
 10
10.9906
 20
63.8121
 11
11.0137
 21
63.8383
  0
LINE
  8
0
 10
11.0137
 20
63.8383
 11
11.0373
 21
63.864
  0
LINE
  8
0
 10
11.0373
 20
63.864
 11
11.0613
 21
63.8893
  0
LINE
  8
0
 10
11.0613
 20
63.8893
 11
11.0858
 21
63.9142
  0
LINE
  8
0
 10
11.0858
 20
63.9142
 11
11.1107
 21
63.9387
  0
LINE
  8
0
 10
11.1107
 20
63.9387
 11
11.136
 21
63.9627
  0
LINE
  8
0
 10
11.136
 20
63.9627
 11
11.1617
 21
63.9863
  0
LINE
  8
0
 10
11.1617
 20
63.9863
 11
11.1879
 21
64.0094
  0
LINE
  8
0
 10
11.1879
 20
64.0094
 11
11.2144
 21
64.0321
  0
LINE
  8
0
 10
11.2144
 20
64.0321
 11
11.2413
 21
64.0543
  0
LINE
  8
0
 10
11.2413
 20
64.0543
 11
11.2687
 21
64.076
  0
LINE
  8
0
 10
11.2687
 20
64.076
 11
11.2964
 21
64.0973
  0
LINE
  8
0
 10
11.2964
 20
64.0973
 11
11.3244
 21
64.118
  0
LINE
  8
0
 10
11.3244
 20
64.118
 11
11.3528
 21
64.1383
  0
LINE
  8
0
 10
11.3528
 20
64.1383
 11
11.3816
 21
64.1581
  0
LINE
  8
0
 10
11.3816
 20
64.1581
 11
11.4107
 21
64.1773
  0
LINE
  8
0
 10
11.4107
 20
64.1773
 11
11.4402
 21
64.1961
  0
LINE
  8
0
 10
11.4402
 20
64.1961
 11
11.4699
 21
64.2143
  0
LINE
  8
0
 10
11.4699
 20
64.2143
 11
11.5
 21
64.232
  0
LINE
  8
0
 10
11.5
 20
64.232
 11
11.5304
 21
64.2492
  0
LINE
  8
0
 10
11.5304
 20
64.2492
 11
11.5611
 21
64.2659
  0
LINE
  8
0
 10
11.5611
 20
64.2659
 11
11.592
 21
64.282
  0
LINE
  8
0
 10
11.592
 20
64.282
 11
11.6232
 21
64.2976
  0
LINE
  8
0
 10
11.6232
 20
64.2976
 11
11.6548
 21
64.3126
  0
LINE
  8
0
 10
11.6548
 20
64.3126
 11
11.6865
 21
64.3271
  0
LINE
  8
0
 10
11.6865
 20
64.3271
 11
11.7185
 21
64.341
  0
LINE
  8
0
 10
11.7185
 20
64.341
 11
11.7508
 21
64.3544
  0
LINE
  8
0
 10
11.7508
 20
64.3544
 11
11.7832
 21
64.3672
  0
LINE
  8
0
 10
11.7832
 20
64.3672
 11
11.8159
 21
64.3794
  0
LINE
  8
0
 10
11.8159
 20
64.3794
 11
11.8489
 21
64.391
  0
LINE
  8
0
 10
11.8489
 20
64.391
 11
11.882
 21
64.4021
  0
LINE
  8
0
 10
11.882
 20
64.4021
 11
11.9153
 21
64.4126
  0
LINE
  8
0
 10
11.9153
 20
64.4126
 11
11.9487
 21
64.4225
  0
LINE
  8
0
 10
11.9487
 20
64.4225
 11
11.9824
 21
64.4318
  0
LINE
  8
0
 10
11.9824
 20
64.4318
 11
12.0161
 21
64.4406
  0
LINE
  8
0
 10
12.0161
 20
64.4406
 11
12.0501
 21
64.4487
  0
LINE
  8
0
 10
12.0501
 20
64.4487
 11
12.0842
 21
64.4563
  0
LINE
  8
0
 10
12.0842
 20
64.4563
 11
12.1184
 21
64.4632
  0
LINE
  8
0
 10
12.1184
 20
64.4632
 11
12.1527
 21
64.4696
  0
LINE
  8
0
 10
12.1527
 20
64.4696
 11
12.1871
 21
64.4754
  0
LINE
  8
0
 10
12.1871
 20
64.4754
 11
12.2216
 21
64.4805
  0
LINE
  8
0
 10
12.2216
 20
64.4805
 11
12.2563
 21
64.4851
  0
LINE
  8
0
 10
12.2563
 20
64.4851
 11
12.2909
 21
64.489
  0
LINE
  8
0
 10
12.2909
 20
64.489
 11
12.3257
 21
64.4924
  0
LINE
  8
0
 10
12.3257
 20
64.4924
 11
12.3605
 21
64.4951
  0
LINE
  8
0
 10
12.3605
 20
64.4951
 11
12.3953
 21
64.4973
  0
LINE
  8
0
 10
12.3953
 20
64.4973
 11
12.4302
 21
64.4988
  0
LINE
  8
0
 10
12.4302
 20
64.4988
 11
12.4651
 21
64.4997
  0
LINE
  8
0
 10
12.4651
 20
64.4997
 11
12.5
 21
64.5
  0
LINE
  8
0
 10
12.5
 20
64.5
 11
12.5349
 21
64.4997
  0
LINE
  8
0
 10
12.5349
 20
64.4997
 11
12.5698
 21
64.4988
  0
LINE
  8
0
 10
12.5698
 20
64.4988
 11
12.6047
 21
64.4973
  0
LINE
  8
0
 10
12.6047
 20
64.4973
 11
12.6395
 21
64.4951
  0
LINE
  8
0
 10
12.6395
 20
64.4951
 11
12.6743
 21
64.4924
  0
LINE
  8
0
 10
12.6743
 20
64.4924
 11
12.709
 21
64.489
  0
LINE
  8
0
 10
12.709
 20
64.489
 11
12.7437
 21
64.4851
  0
LINE
  8
0
 10
12.7437
 20
64.4851
 11
12.7783
 21
64.4805
  0
LINE
  8
0
 10
12.7783
 20
64.4805
 11
12.8129
 21
64.4754
  0
LINE
  8
0
 10
12.8129
 20
64.4754
 11
12.8473
 21
64.4696
  0
LINE
  8
0
 10
12.8473
 20
64.4696
 11
12.8816
 21
64.4632
  0
LINE
  8
0
 10
12.8816
 20
64.4632
 11
12.9158
 21
64.4563
  0
LINE
  8
0
 10
12.9158
 20
64.4563
 11
12.9499
 21
64.4487
  0
LINE
  8
0
 10
12.9499
 20
64.4487
 11
12.9838
 21
64.4406
  0
LINE
  8
0
 10
12.9838
 20
64.4406
 11
13.0176
 21
64.4318
  0
LINE
  8
0
 10
13.0176
 20
64.4318
 11
13.0513
 21
64.4225
  0
LINE
  8
0
 10
13.0513
 20
64.4225
 11
13.0847
 21
64.4126
  0
LINE
  8
0
 10
13.0847
 20
64.4126
 11
13.118
 21
64.4021
  0
LINE
  8
0
 10
13.118
 20
64.4021
 11
13.1511
 21
64.391
  0
LINE
  8
0
 10
13.1511
 20
64.391
 11
13.184
 21
64.3794
  0
LINE
  8
0
 10
13.184
 20
64.3794
 11
13.2167
 21
64.3672
  0
LINE
  8
0
 10
13.2167
 20
64.3672
 11
13.2492
 21
64.3544
  0
LINE
  8
0
 10
13.2492
 20
64.3544
 11
13.2814
 21
64.341
  0
LINE
  8
0
 10
13.2814
 20
64.341
 11
13.3135
 21
64.3271
  0
LINE
  8
0
 10
13.3135
 20
64.3271
 11
13.3452
 21
64.3126
  0
LINE
  8
0
 10
13.3452
 20
64.3126
 11
13.3767
 21
64.2976
  0
LINE
  8
0
 10
13.3767
 20
64.2976
 11
13.408
 21
64.282
  0
LINE
  8
0
 10
13.408
 20
64.282
 11
13.4389
 21
64.2659
  0
LINE
  8
0
 10
13.4389
 20
64.2659
 11
13.4696
 21
64.2492
  0
LINE
  8
0
 10
13.4696
 20
64.2492
 11
13.5
 21
64.232
  0
LINE
  8
0
 10
13.5
 20
64.232
 11
13.5301
 21
64.2143
  0
LINE
  8
0
 10
13.5301
 20
64.2143
 11
13.5598
 21
64.1961
  0
LINE
  8
0
 10
13.5598
 20
64.1961
 11
13.5893
 21
64.1773
  0
LINE
  8
0
 10
13.5893
 20
64.1773
 11
13.6184
 21
64.1581
  0
LINE
  8
0
 10
13.6184
 20
64.1581
 11
13.6471
 21
64.1383
  0
LINE
  8
0
 10
13.6471
 20
64.1383
 11
13.6756
 21
64.118
  0
LINE
  8
0
 10
13.6756
 20
64.118
 11
13.7036
 21
64.0973
  0
LINE
  8
0
 10
13.7036
 20
64.0973
 11
13.7313
 21
64.076
  0
LINE
  8
0
 10
13.7313
 20
64.076
 11
13.7586
 21
64.0543
  0
LINE
  8
0
 10
13.7586
 20
64.0543
 11
13.7856
 21
64.0321
  0
LINE
  8
0
 10
13.7856
 20
64.0321
 11
13.8121
 21
64.0094
  0
LINE
  8
0
 10
13.8121
 20
64.0094
 11
13.8383
 21
63.9863
  0
LINE
  8
0
 10
13.8383
 20
63.9863
 11
13.864
 21
63.9627
  0
LINE
  8
0
 10
13.864
 20
63.9627
 11
13.8893
 21
63.9387
  0
LINE
  8
0
 10
13.8893
 20
63.9387
 11
13.9142
 21
63.9142
  0
LINE
  8
0
 10
13.9142
 20
63.9142
 11
13.9387
 21
63.8893
  0
LINE
  8
0
 10
13.9387
 20
63.8893
 11
13.9627
 21
63.864
  0
LINE
  8
0
 10
13.9627
 20
63.864
 11
13.9863
 21
63.8383
  0
LINE
  8
0
 10
13.9863
 20
63.8383
 11
14.0094
 21
63.8121
  0
LINE
  8
0
 10
14.0094
 20
63.8121
 11
14.0321
 21
63.7856
  0
LINE
  8
0
 10
14.0321
 20
63.7856
 11
14.0543
 21
63.7586
  0
LINE
  8
0
 10
14.0543
 20
63.7586
 11
14.076
 21
63.7313
  0
LINE
  8
0
 10
14.076
 20
63.7313
 11
14.0973
 21
63.7036
  0
LINE
  8
0
 10
14.0973
 20
63.7036
 11
14.118
 21
63.6756
  0
LINE
  8
0
 10
14.118
 20
63.6756
 11
14.1383
 21
63.6471
  0
LINE
  8
0
 10
14.1383
 20
63.6471
 11
14.1581
 21
63.6184
  0
LINE
  8
0
 10
14.1581
 20
63.6184
 11
14.1773
 21
63.5893
  0
LINE
  8
0
 10
14.1773
 20
63.5893
 11
14.1961
 21
63.5598
  0
LINE
  8
0
 10
14.1961
 20
63.5598
 11
14.2143
 21
63.5301
  0
LINE
  8
0
 10
14.2143
 20
63.5301
 11
14.232
 21
63.5
  0
LINE
  8
0
 10
14.232
 20
63.5
 11
14.2492
 21
63.4696
  0
LINE
  8
0
 10
14.2492
 20
63.4696
 11
14.2659
 21
63.4389
  0
LINE
  8
0
 10
14.2659
 20
63.4389
 11
14.282
 21
63.408
  0
LINE
  8
0
 10
14.282
 20
63.408
 11
14.2976
 21
63.3767
  0
LINE
  8
0
 10
14.2976
 20
63.3767
 11
14.3126
 21
63.3452
  0
LINE
  8
0
 10
14.3126
 20
63.3452
 11
14.3271
 21
63.3135
  0
LINE
  8
0
 10
14.3271
 20
63.3135
 11
14.341
 21
63.2814
  0
LINE
  8
0
 10
14.341
 20
63.2814
 11
14.3544
 21
63.2492
  0
LINE
  8
0
 10
14.3544
 20
63.2492
 11
14.3672
 21
63.2167
  0
LINE
  8
0
 10
14.3672
 20
63.2167
 11
14.3794
 21
63.184
  0
LINE
  8
0
 10
14.3794
 20
63.184
 11
14.391
 21
63.1511
  0
LINE
  8
0
 10
14.391
 20
63.1511
 11
14.4021
 21
63.118
  0
LINE
  8
0
 10
14.4021
 20
63.118
 11
14.4126
 21
63.0847
  0
LINE
  8
0
 10
14.4126
 20
63.0847
 11
14.4225
 21
63.0513
  0
LINE
  8
0
 10
14.4225
 20
63.0513
 11
14.4318
 21
63.0176
  0
LINE
  8
0
 10
14.4318
 20
63.0176
 11
14.4406
 21
62.9838
  0
LINE
  8
0
 10
14.4406
 20
62.9838
 11
14.4487
 21
62.9499
  0
LINE
  8
0
 10
14.4487
 20
62.9499
 11
14.4563
 21
62.9158
  0
LINE
  8
0
 10
14.4563
 20
62.9158
 11
14.4632
 21
62.8816
  0
LINE
  8
0
 10
14.4632
 20
62.8816
 11
14.4696
 21
62.8473
  0
LINE
  8
0
 10
14.4696
 20
62.8473
 11
14.4754
 21
62.8129
  0
LINE
  8
0
 10
14.4754
 20
62.8129
 11
14.4805
 21
62.7783
  0
LINE
  8
0
 10
14.4805
 20
62.7783
 11
14.4851
 21
62.7437
  0
LINE
  8
0
 10
14.4851
 20
62.7437
 11
14.489
 21
62.709
  0
LINE
  8
0
 10
14.489
 20
62.709
 11
14.4924
 21
62.6743
  0
LINE
  8
0
 10
14.4924
 20
62.6743
 11
14.4951
 21
62.6395
  0
LINE
  8
0
 10
14.4951
 20
62.6395
 11
14.4973
 21
62.6047
  0
LINE
  8
0
 10
14.4973
 20
62.6047
 11
14.4988
 21
62.5698
  0
LINE
  8
0
 10
14.4988
 20
62.5698
 11
14.4997
 21
62.5349
  0
LINE
  8
0
 10
14.4997
 20
62.5349
 11
14.5
 21
62.5
  0
LINE
  8
0
 10
14.5
 20
62.5
 11
14.4997
 21
62.4651
  0
LINE
  8
0
 10
14.4997
 20
62.4651
 11
14.4988
 21
62.4302
  0
LINE
  8
0
 10
14.4988
 20
62.4302
 11
14.4973
 21
62.3953
  0
LINE
  8
0
 10
14.4973
 20
62.3953
 11
14.4951
 21
62.3605
  0
LINE
  8
0
 10
14.4951
 20
62.3605
 11
14.4924
 21
62.3257
  0
LINE
  8
0
 10
14.4924
 20
62.3257
 11
14.489
 21
62.2909
  0
LINE
  8
0
 10
14.489
 20
62.2909
 11
14.4851
 21
62.2563
  0
LINE
  8
0
 10
14.4851
 20
62.2563
 11
14.4805
 21
62.2216
  0
LINE
  8
0
 10
14.4805
 20
62.2216
 11
14.4754
 21
62.1871
  0
LINE
  8
0
 10
14.4754
 20
62.1871
 11
14.4696
 21
62.1527
  0
LINE
  8
0
 10
14.4696
 20
62.1527
 11
14.4632
 21
62.1184
  0
LINE
  8
0
 10
14.4632
 20
62.1184
 11
14.4563
 21
62.0842
  0
LINE
  8
0
 10
14.4563
 20
62.0842
 11
14.4487
 21
62.0501
  0
LINE
  8
0
 10
14.4487
 20
62.0501
 11
14.4406
 21
62.0161
  0
LINE
  8
0
 10
14.4406
 20
62.0161
 11
14.4318
 21
61.9824
  0
LINE
  8
0
 10
14.4318
 20
61.9824
 11
14.4225
 21
61.9487
  0
LINE
  8
0
 10
14.4225
 20
61.9487
 11
14.4126
 21
61.9153
  0
LINE
  8
0
 10
14.4126
 20
61.9153
 11
14.4021
 21
61.882
  0
LINE
  8
0
 10
14.4021
 20
61.882
 11
14.391
 21
61.8489
  0
LINE
  8
0
 10
14.391
 20
61.8489
 11
14.3794
 21
61.8159
  0
LINE
  8
0
 10
14.3794
 20
61.8159
 11
14.3672
 21
61.7832
  0
LINE
  8
0
 10
14.3672
 20
61.7832
 11
14.3544
 21
61.7508
  0
LINE
  8
0
 10
14.3544
 20
61.7508
 11
14.341
 21
61.7185
  0
LINE
  8
0
 10
14.341
 20
61.7185
 11
14.3271
 21
61.6865
  0
LINE
  8
0
 10
14.3271
 20
61.6865
 11
14.3126
 21
61.6548
  0
LINE
  8
0
 10
14.3126
 20
61.6548
 11
14.2976
 21
61.6232
  0
LINE
  8
0
 10
14.2976
 20
61.6232
 11
14.282
 21
61.592
  0
LINE
  8
0
 10
14.282
 20
61.592
 11
14.2659
 21
61.5611
  0
LINE
  8
0
 10
14.2659
 20
61.5611
 11
14.2492
 21
61.5304
  0
LINE
  8
0
 10
14.2492
 20
61.5304
 11
14.232
 21
61.5
  0
LINE
  8
0
 10
14.232
 20
61.5
 11
14.2143
 21
61.4699
  0
LINE
  8
0
 10
14.2143
 20
61.4699
 11
14.1961
 21
61.4402
  0
LINE
  8
0
 10
14.1961
 20
61.4402
 11
14.1773
 21
61.4107
  0
LINE
  8
0
 10
14.1773
 20
61.4107
 11
14.1581
 21
61.3816
  0
LINE
  8
0
 10
14.1581
 20
61.3816
 11
14.1383
 21
61.3528
  0
LINE
  8
0
 10
14.1383
 20
61.3528
 11
14.118
 21
61.3244
  0
LINE
  8
0
 10
14.118
 20
61.3244
 11
14.0973
 21
61.2964
  0
LINE
  8
0
 10
14.0973
 20
61.2964
 11
14.076
 21
61.2687
  0
LINE
  8
0
 10
14.076
 20
61.2687
 11
14.0543
 21
61.2413
  0
LINE
  8
0
 10
14.0543
 20
61.2413
 11
14.0321
 21
61.2144
  0
LINE
  8
0
 10
14.0321
 20
61.2144
 11
14.0094
 21
61.1879
  0
LINE
  8
0
 10
14.0094
 20
61.1879
 11
13.9863
 21
61.1617
  0
LINE
  8
0
 10
13.9863
 20
61.1617
 11
13.9627
 21
61.136
  0
LINE
  8
0
 10
13.9627
 20
61.136
 11
13.9387
 21
61.1107
  0
LINE
  8
0
 10
13.9387
 20
61.1107
 11
13.9142
 21
61.0858
  0
LINE
  8
0
 10
13.9142
 20
61.0858
 11
13.8893
 21
61.0613
  0
LINE
  8
0
 10
13.8893
 20
61.0613
 11
13.864
 21
61.0373
  0
LINE
  8
0
 10
13.864
 20
61.0373
 11
13.8383
 21
61.0137
  0
LINE
  8
0
 10
13.8383
 20
61.0137
 11
13.8121
 21
60.9906
  0
LINE
  8
0
 10
13.8121
 20
60.9906
 11
13.7856
 21
60.9679
  0
LINE
  8
0
 10
13.7856
 20
60.9679
 11
13.7586
 21
60.9457
  0
LINE
  8
0
 10
13.7586
 20
60.9457
 11
13.7313
 21
60.924
  0
LINE
  8
0
 10
13.7313
 20
60.924
 11
13.7036
 21
60.9027
  0
LINE
  8
0
 10
13.7036
 20
60.9027
 11
13.6756
 21
60.882
  0
LINE
  8
0
 10
13.6756
 20
60.882
 11
13.6471
 21
60.8617
  0
LINE
  8
0
 10
13.6471
 20
60.8617
 11
13.6184
 21
60.8419
  0
LINE
  8
0
 10
13.6184
 20
60.8419
 11
13.5893
 21
60.8226
  0
LINE
  8
0
 10
13.5893
 20
60.8226
 11
13.5598
 21
60.8039
  0
LINE
  8
0
 10
13.5598
 20
60.8039
 11
13.5301
 21
60.7857
  0
LINE
  8
0
 10
13.5301
 20
60.7857
 11
13.5
 21
60.7679
  0
LINE
  8
0
 10
13.5
 20
60.7679
 11
13.4696
 21
60.7507
  0
LINE
  8
0
 10
13.4696
 20
60.7507
 11
13.4389
 21
60.7341
  0
LINE
  8
0
 10
13.4389
 20
60.7341
 11
13.408
 21
60.718
  0
LINE
  8
0
 10
13.408
 20
60.718
 11
13.3767
 21
60.7024
  0
LINE
  8
0
 10
13.3767
 20
60.7024
 11
13.3452
 21
60.6874
  0
LINE
  8
0
 10
13.3452
 20
60.6874
 11
13.3135
 21
60.6729
  0
LINE
  8
0
 10
13.3135
 20
60.6729
 11
13.2814
 21
60.659
  0
LINE
  8
0
 10
13.2814
 20
60.659
 11
13.2492
 21
60.6456
  0
LINE
  8
0
 10
13.2492
 20
60.6456
 11
13.2167
 21
60.6328
  0
LINE
  8
0
 10
13.2167
 20
60.6328
 11
13.184
 21
60.6206
  0
LINE
  8
0
 10
13.184
 20
60.6206
 11
13.1511
 21
60.6089
  0
LINE
  8
0
 10
13.1511
 20
60.6089
 11
13.118
 21
60.5979
  0
LINE
  8
0
 10
13.118
 20
60.5979
 11
13.0847
 21
60.5874
  0
LINE
  8
0
 10
13.0847
 20
60.5874
 11
13.0513
 21
60.5775
  0
LINE
  8
0
 10
13.0513
 20
60.5775
 11
13.0176
 21
60.5681
  0
LINE
  8
0
 10
13.0176
 20
60.5681
 11
12.9838
 21
60.5594
  0
LINE
  8
0
 10
12.9838
 20
60.5594
 11
12.9499
 21
60.5513
  0
LINE
  8
0
 10
12.9499
 20
60.5513
 11
12.9158
 21
60.5437
  0
LINE
  8
0
 10
12.9158
 20
60.5437
 11
12.8816
 21
60.5367
  0
LINE
  8
0
 10
12.8816
 20
60.5367
 11
12.8473
 21
60.5304
  0
LINE
  8
0
 10
12.8473
 20
60.5304
 11
12.8129
 21
60.5246
  0
LINE
  8
0
 10
12.8129
 20
60.5246
 11
12.7783
 21
60.5195
  0
LINE
  8
0
 10
12.7783
 20
60.5195
 11
12.7437
 21
60.5149
  0
LINE
  8
0
 10
12.7437
 20
60.5149
 11
12.709
 21
60.511
  0
LINE
  8
0
 10
12.709
 20
60.511
 11
12.6743
 21
60.5076
  0
LINE
  8
0
 10
12.6743
 20
60.5076
 11
12.6395
 21
60.5049
  0
LINE
  8
0
 10
12.6395
 20
60.5049
 11
12.6047
 21
60.5027
  0
LINE
  8
0
 10
12.6047
 20
60.5027
 11
12.5698
 21
60.5012
  0
LINE
  8
0
 10
12.5698
 20
60.5012
 11
12.5349
 21
60.5003
  0
LINE
  8
0
 10
12.5349
 20
60.5003
 11
12.5
 21
60.5
  0
LINE
  8
0
 10
12.5
 20
60.5
 11
12.4651
 21
60.5003
  0
ENDSEC
  0
SECTION
  2
OBJECTS
  0
DICTIONARY
  0
ENDSEC
  0
EOF
